<?xml version="1.0" encoding="utf-8"?>
<!-- Generator: Adobe Illustrator 21.0.2, SVG Export Plug-In . SVG Version: 6.00 Build 0)  -->
<svg version="1.1"
	 id="Слой_1" xmlns:cc="http://creativecommons.org/ns#" xmlns:dc="http://purl.org/dc/elements/1.1/" xmlns:rdf="http://www.w3.org/1999/02/22-rdf-syntax-ns#"
	 xmlns="http://www.w3.org/2000/svg" xmlns:xlink="http://www.w3.org/1999/xlink" x="0px" y="0px" viewBox="0 0 375 375"
	 style="enable-background:new 0 0 375 375;" xml:space="preserve">
<style type="text/css">
	.st0{fill:#ED2A2B;}
	.st1{fill:#5382A1;}
</style>
<g transform="matrix(.96094 0 0 .96094 861.75 -658.28)">
	<g transform="matrix(.7395 0 0 .7395 -765.24 725.69)">
		<path class="st0" d="M192.5,333.8h-1.6v-0.9h4.4v0.9h-1.6v4.6h-1.1V333.8z M201.3,334L201.3,334l-1.6,4.3h-0.7l-1.6-4.3h0v4.3
			h-1.1v-5.5h1.6l1.5,3.9l1.5-3.9h1.6v5.5h-1L201.3,334L201.3,334z"/>
		<path class="st1" d="M46.6,222.1c0,0-11.3,6.6,8.1,8.8c23.5,2.7,35.5,2.3,61.5-2.6c0,0,6.8,4.3,16.3,8
			C74.3,261.2,0.9,234.8,46.6,222.1"/>
		<path class="st1" d="M39.5,189.6c0,0-12.7,9.4,6.7,11.4c25.1,2.6,45,2.8,79.3-3.8c0,0,4.7,4.8,12.2,7.4
			C67.4,225.2-10.8,206.2,39.5,189.6"/>
		<path class="st0" d="M99.3,134.4c14.3,16.5-3.8,31.3-3.8,31.3s36.4-18.8,19.7-42.3c-15.6-21.9-27.6-32.8,37.2-70.3
			C152.4,53.1,50.8,78.5,99.3,134.4"/>
		<g>
			<path class="st1" d="M176.2,246.1c0,0,8.4,6.9-9.2,12.3c-33.5,10.2-139.6,13.2-169,0.4c-10.6-4.6,9.3-11,15.5-12.3
				c6.5-1.4,10.2-1.1,10.2-1.1c-11.8-8.3-76.1,16.3-32.7,23.3C109.4,287.8,206.9,260,176.2,246.1"/>
			<path class="st1" d="M52,155.9c0,0-53.9,12.8-19.1,17.5c14.7,2,44,1.5,71.4-0.8c22.3-1.9,44.7-5.9,44.7-5.9s-7.9,3.4-13.6,7.3
				c-54.8,14.4-160.6,7.7-130.1-7C31.1,154.5,52,155.9,52,155.9"/>
			<path class="st1" d="M148.8,210c55.7-28.9,29.9-56.7,12-53c-4.4,0.9-6.4,1.7-6.4,1.7s1.6-2.6,4.8-3.7
				c35.6-12.5,62.9,36.9-11.5,56.4C147.7,211.4,148.5,210.7,148.8,210"/>
		</g>
		<path class="st0" d="M115.2-7.5c0,0,30.8,30.9-29.3,78.3c-48.2,38.1-11,59.8,0,84.5C57.8,130,37.2,107.6,51,86.8
			C71.4,56.3,127.7,41.5,115.2-7.5"/>
		<path class="st1" d="M57.5,288.4c53.5,3.4,135.5-1.9,137.5-27.2c0,0-3.7,9.6-44.2,17.2c-45.6,8.6-101.9,7.6-135.3,2.1
			C15.5,280.5,22.4,286.1,57.5,288.4"/>
		<g>
			<path class="st0" d="M48.7,385c-5,4.4-10.4,6.8-15.1,6.8c-6.8,0-10.5-4.1-10.5-10.7c0-7.1,3.9-12.3,19.8-12.3h5.9L48.7,385
				 M62.6,400.7v-48.6c0-12.4-7.1-20.6-24.2-20.6c-10,0-18.7,2.5-25.8,5.6l2,8.6c5.6-2.1,12.8-4,19.9-4c9.8,0,14.1,4,14.1,12.1v6.1
				h-4.9c-23.9,0-34.7,9.3-34.7,23.2c0,12,7.1,18.8,20.5,18.8c8.6,0,15-3.5,21-8.7l1.1,7.4L62.6,400.7L62.6,400.7z"/>
			<path class="st0" d="M109.1,400.7H91.7l-20.9-68H86l13,41.8l2.9,12.6c6.6-18.2,11.2-36.6,13.5-54.3h14.7
				C126.1,355.1,119,379.7,109.1,400.7"/>
			<path class="st0" d="M175.7,385c-5.1,4.4-10.4,6.8-15.2,6.8c-6.8,0-10.5-4.1-10.5-10.7c0-7.1,4-12.3,19.8-12.3h5.9V385
				 M189.6,400.7v-48.6c0-12.4-7.1-20.6-24.1-20.6c-10,0-18.7,2.5-25.8,5.6l2,8.6c5.6-2.1,12.8-4,19.9-4c9.8,0,14.1,4,14.1,12.1v6.1
				h-4.9c-23.9,0-34.7,9.3-34.7,23.2c0,12,7.1,18.8,20.5,18.8c8.6,0,15-3.5,21-8.7l1.1,7.4L189.6,400.7L189.6,400.7z"/>
			<path class="st0" d="M-6.1,412.3c-4,5.8-10.4,10.4-17.4,13l-6.9-8.1c5.3-2.7,9.9-7.2,12-11.3c1.8-3.7,2.6-8.4,2.6-19.7v-77.6
				h14.8v76.5C-0.9,400.2-2.1,406.3-6.1,412.3"/>
		</g>
	</g>
</g>
</svg>
