<?xml version="1.0" encoding="utf-8"?>
<!-- Generator: Adobe Illustrator 21.0.2, SVG Export Plug-In . SVG Version: 6.00 Build 0)  -->
<svg version="1.1" id="Слой_1" xmlns="http://www.w3.org/2000/svg" xmlns:xlink="http://www.w3.org/1999/xlink" x="0px" y="0px"
	 viewBox="0 0 523.6 523.3" style="enable-background:new 0 0 523.6 523.3;" xml:space="preserve">
<style type="text/css">
	.st0{fill:#131B28;}
	.st1{fill:#0868AC;}
</style>
<path class="st0" d="M225.2,243.7L225.2,243.7l-3.4,11.9L225.2,243.7L225.2,243.7z"/>
<path class="st0" d="M242.5,269.5l-3.7,0L242.5,269.5z"/>
<path class="st0" d="M241.5,287.2L241.5,287.2l-22.1,0.1L241.5,287.2L241.5,287.2z"/>
<path class="st0" d="M246.2,269.5l-3.7,0L246.2,269.5z"/>
<path class="st0" d="M243.5,285.7l3.9-14.7L243.5,285.7L243.5,285.7L243.5,285.7z"/>
<path class="st0" d="M324.9,218l-7.2,33.8C317.8,251.7,324.9,218,324.9,218z"/>
<path class="st0" d="M306.5,218l-5.5,25.2L306.5,218L306.5,218z"/>
<path class="st0" d="M323.7,216.5h-15.4c-0.9,0-1.7,0.7-1.9,1.5l-5.5,25.2l-5.5,25.2c-0.2,0.8-1,1.5-1.9,1.5h-9.3h-1.6
	c-10.8,0-9.5-7.4-7.3-17.6c0-0.1,0-0.2,0.1-0.3l0.2-1.3c0-0.1,0-0.2,0-0.2l0.5-2.6l0.5-2.8c0.2-0.8,0.4-2.1,0.6-2.9l2.5-12.1
	l2.5-12.1c0.2-0.8-0.4-1.5-1.2-1.5h-15.8c-0.9,0-1.7,0.7-1.9,1.5l-3.4,16.1l-3.4,16.1c0,0,0,0,0,0l-0.3,1.5
	c-3.9,17.8-2.9,34.8,18.3,35.3c0.3,0,0.6,0,0.6,0h33.3c0.9,0,1.7-0.7,1.9-1.5l7.2-33.8l7.2-33.8
	C325.1,217.2,324.6,216.5,323.7,216.5L323.7,216.5z"/>
<path class="st0" d="M385,270.1c0.9,0,1.4,0.7,1.2,1.5l-1.5,7.3"/>
<path class="st0" d="M383.2,286.2l1.5-7.3L383.2,286.2C383.2,286.2,383.2,286.2,383.2,286.2L383.2,286.2z"/>
<path class="st0" d="M381.4,287.8C381.4,287.8,381.4,287.8,381.4,287.8c-4.5,0-18.1,0.1-28.3,0.1
	C365.5,287.9,381.4,287.8,381.4,287.8L381.4,287.8z"/>
<path class="st0" d="M343.9,260.7c0-0.8,0.9-2.2,1.7-2.2l-1.9,0C342.9,267.2,343.9,260.7,343.9,260.7L343.9,260.7z"/>
<path class="st0" d="M354.5,287.9c-0.1,0-0.2,0-0.3,0C354.3,287.9,354.4,287.9,354.5,287.9z"/>
<path class="st0" d="M385,270.1c0.9,0,1.4,0.7,1.2,1.5l-1.5,7.3l-0.2,1.2"/>
<path class="st0" d="M361.7,287.9L361.7,287.9L361.7,287.9z"/>
<path class="st0" d="M358,287.9h-0.2H358z"/>
<path class="st0" d="M356.8,287.9c-0.1,0-0.2,0-0.4,0C356.6,287.9,356.7,287.9,356.8,287.9z"/>
<path class="st0" d="M355.6,287.9h-0.3H355.6z"/>
<path class="st0" d="M357.7,287.9c-0.3,0-0.6,0-0.9,0C357.1,287.9,357.4,287.9,357.7,287.9z"/>
<path class="st0" d="M361.7,287.9c-1.2,0-2.5,0-3.7,0C359.2,287.9,360.4,287.9,361.7,287.9z"/>
<path class="st0" d="M381.4,287.7L381.4,287.7c-3.3,0-11.5,0.1-19.6,0.1C369.9,287.8,378.1,287.8,381.4,287.7z"/>
<path class="st0" d="M383.2,286.2l1.2-6.1L383.2,286.2C383.2,286.2,383.2,286.2,383.2,286.2L383.2,286.2z"/>
<path class="st0" d="M356.5,287.9h-0.8H356.5z"/>
<path class="st0" d="M354.2,287.9h-1.1H354.2z"/>
<path class="st0" d="M355.3,287.9h-0.9H355.3z"/>
<path class="st0" d="M130.7,260.9l2.4-10.6l-2.7,12.1l-2.6,12.3l2.3-10.8C130.2,263.1,130.5,261.7,130.7,260.9L130.7,260.9z"/>
<path class="st0" d="M159.2,216.3h-16.9c-0.9,0-1.7,0.7-1.9,1.5l-1.6,7.1l-1.6,7.1c-0.2,0.8,0.4,1.5,1.2,1.5h17
	c0.9,0,1.7-0.7,1.9-1.5l1.5-7.1l1.5-7.1v0C160.6,217,160.1,216.3,159.2,216.3L159.2,216.3z"/>
<path class="st0" d="M155.6,239.8L155.6,239.8l-4.9,22.9L155.6,239.8z"/>
<path class="st0" d="M106.6,315.6c0,0,8.5,0.1,13.9,0.1C116.4,315.7,109.6,315.6,106.6,315.6C106.6,315.6,106.6,315.6,106.6,315.6
	L106.6,315.6z"/>
<path class="st0" d="M135.5,239.8l-2.4,10.6L135.5,239.8z"/>
<path class="st0" d="M154.4,238.3h-17c-0.9,0-1.7,0.7-1.9,1.5l-2.4,10.6l-2.4,10.6c-0.2,0.8-0.5,2.2-0.7,3l-2.3,10.8l-2.3,10.8
	c-0.2,0.8-0.5,2.2-0.8,3c0,0-3.2,9.4-8.5,9.3c-0.2,0-0.4,0-0.7,0c-2.6,0-4.6-0.1-4.6-0.1h0c-0.9,0-1.7,0.7-1.9,1.5l-1.8,7.4
	l-1.8,7.4c-0.2,0.8,0.3,1.5,1.2,1.5c3,0,9.8,0.1,13.9,0.1c13.3,0,20.4-7.4,24.9-28.6l5.3-24.4l4.9-22.9
	C155.8,238.9,155.2,238.3,154.4,238.3L154.4,238.3z"/>
<path class="st0" d="M395.8,287c-0.9,0-1.4-0.7-1.2-1.5l12.8-59.9"/>
<path class="st0" d="M413.6,285.5l5.2-25.6L413.6,285.5z"/>
<path class="st0" d="M394.8,286.3c-0.1-0.4,0-1.4,0.1-2.3l6.1-28.4l-6.4,29.9c-0.2,0.8,0.4,1.5,1.2,1.5h1.6
	C396.5,287,394.9,286.7,394.8,286.3L394.8,286.3z"/>
<path class="st0" d="M412.6,286.7c-0.5,0.2-1.5,0.3-2.4,0.3h1.6c0.9,0,1.7-0.7,1.9-1.5l0.3-1.5C413.7,284.8,413,286.5,412.6,286.7
	L412.6,286.7z"/>
<path class="st0" d="M416.2,272.7l2.3-11.3c0,0,0,0,0,0L416.2,272.7L416.2,272.7z"/>
<path class="st0" d="M466.6,229.6l0.7,2.9c0.2,0.8-0.3,1.5-1.2,1.5"/>
<path class="st0" d="M413.9,284l2.3-11.3L413.9,284z"/>
<path class="st0" d="M465.9,226.6l0.7,3L465.9,226.6z"/>
<path class="st0" d="M418.4,261.4c0.2-0.8,0.5-2.2,0.6-3l2.4-11.4l-2.8,12.9L418.4,261.4L418.4,261.4z"/>
<path class="st0" d="M407.6,224.6c-0.2,0.8-0.4,1.8-0.5,2.5l-6.1,28.4l6.4-29.9L407.6,224.6L407.6,224.6z"/>
<path class="st0" d="M467.3,232.5l-0.7-2.9l-0.7-3l-0.4-1.5c-1.4-5.4-5.4-8.5-14.2-8.5l-13.7,0l-12.6,0h-1.1h-13.1
	c-0.9,0-1.7,0.7-1.9,1.5h0l-0.6,3l-0.7,3.5l-0.2,1l-6.4,29.9l-6.1,28.4c-0.2,0.8-0.2,1.9-0.1,2.3c0.1,0.4,1.7,0.8,2.6,0.8h12.8
	c0.9,0,1.9-0.2,2.4-0.3c0.5-0.2,1.2-1.9,1.3-2.7l2.3-11.3l2.3-11.3c0,0,0,0,0,0l0.3-1.5l2.8-12.9l2.4-11.4c0.2-0.8,1-1.5,1.9-1.5
	l40.3,0C467,234,467.5,233.4,467.3,232.5L467.3,232.5z"/>
<path class="st0" d="M519.2,206.2c-0.9,0-2.2,0-3.1,0h-12.9c-0.9,0-1.9,0.6-2.4,1.3l-28.5,41.8c-0.5,0.7-1,0.6-1.2-0.2l-2.1-9.2
	c-0.2-0.8-1-1.5-1.9-1.5h-18.3c-0.9,0-1.4,0.7-1.1,1.5l8.2,28.8c0.2,0.8,0.3,2.2,0,3l-3.6,13.9c-0.2,0.8,0.3,1.5,1.2,1.5h18.1
	c0.9,0,1.7-0.7,1.9-1.5l3.6-13.9c0.2-0.8,0.8-2.1,1.3-2.7l46.3-61.5c0.5-0.7,0.2-1.2-0.6-1.2L519.2,206.2L519.2,206.2z"/>
<path class="st0" d="M373.5,242.3L373.5,242.3c-0.1,0.9-1,1.6-1.8,1.6h-23.2c-0.8,0-1.2-0.5-1.1-1.2c0,0,0,0,0-0.1c0,0,0,0,0,0
	c0,0,0-0.1,0-0.1c0,0,0-0.2,0.1-0.4c2.2-5.9,6.7-9.8,15.2-9.8C372.3,232.3,374.2,237,373.5,242.3L373.5,242.3z M366.7,215.4
	c-29.8,0-36.9,18.1-40.9,36.4c-4,18.6-3.6,36.1,27.3,36.1h1.1c0.1,0,0.2,0,0.3,0h0.9h0.3h0.8c0.1,0,0.2,0,0.4,0c0.3,0,0.6,0,0.9,0
	h0.2c1.2,0,2.5,0,3.7,0h0.1c8.2,0,16.3-0.1,19.6-0.1c0.8,0,1.7-0.7,1.9-1.5l1.3-6.1l0.2-1.2l1.5-7.3c0.2-0.8-0.4-1.5-1.2-1.5h-27.8
	c-11,0-14.3-2.9-13.1-11.6h44.4l0,0c0,0,0,0,0,0c0.7,0,1.4-0.5,1.6-1.1c0-0.1,0.1-0.3,0.1-0.4l0,0
	C396.8,232.2,394.9,215.4,366.7,215.4L366.7,215.4z"/>
<path class="st0" d="M225.7,242.2l-0.4,1.5c0,0,0,0,0,0l-3.4,11.9l-3.3,11.9c-0.2,0.8-1.1,1.5-2,1.5h-17.7
	c-13.5,0-16.7-10.5-13.5-26c3.3-15.9,9.7-25.7,22.9-26.7C226.4,214.8,230,227.5,225.7,242.2L225.7,242.2z M237.8,268
	c0,0,8.4-20.3,10.3-32c2.6-15.7-5.3-38.5-35.6-38.5c-30.2,0-43.3,21.7-48.3,45.4c-5,23.8,1.6,44.7,31.6,44.5l23.7-0.1l22.1-0.1
	c0.9,0,1.7-0.7,1.9-1.5l3.9-14.7c0.2-0.8-0.3-1.5-1.2-1.5l-3.7,0l-3.7,0c-0.7,0-1.1-0.5-1.1-1.1C237.7,268.2,237.8,268.1,237.8,268
	L237.8,268z"/>
<path class="st0" d="M387.3,254.4c0,0.6-0.5,1-1,1c-0.6,0-1-0.5-1-1c0-0.6,0.5-1,1-1C386.8,253.4,387.3,253.8,387.3,254.4z"/>
<path class="st1" d="M7.3,228C-1,240,0,255.6,6.4,268.3c0.2,0.3,0.3,0.6,0.5,0.9c0.1,0.2,0.2,0.4,0.3,0.6c0.1,0.1,0.1,0.2,0.2,0.3
	c0.1,0.2,0.2,0.4,0.3,0.6c0.2,0.3,0.4,0.7,0.6,1c0.1,0.2,0.2,0.4,0.3,0.6c0.2,0.4,0.5,0.7,0.7,1.1c0.1,0.2,0.2,0.3,0.3,0.5
	c0.3,0.5,0.7,1,1,1.5c0,0,0,0,0,0c0.1,0.1,0.1,0.2,0.2,0.2c0.3,0.4,0.6,0.8,0.9,1.2c0.1,0.1,0.2,0.3,0.4,0.4
	c0.3,0.4,0.6,0.7,0.9,1.1c0.1,0.1,0.2,0.3,0.3,0.4c0.4,0.5,0.8,0.9,1.2,1.4c0,0,0,0,0,0c0,0,0,0,0,0.1c0.4,0.4,0.8,0.9,1.2,1.3
	c0.1,0.1,0.3,0.3,0.4,0.4c0.3,0.3,0.6,0.6,1,1c0.1,0.1,0.3,0.3,0.4,0.4c0.4,0.4,0.9,0.8,1.3,1.2c0,0,0,0,0,0
	c0.1,0.1,0.2,0.1,0.2,0.2c0.4,0.3,0.8,0.7,1.2,1c0.2,0.1,0.3,0.3,0.5,0.4c0.3,0.3,0.7,0.5,1,0.8c0.2,0.1,0.4,0.3,0.5,0.4
	c0.4,0.3,0.8,0.5,1.1,0.8c0.1,0.1,0.3,0.2,0.4,0.3c0,0,0.1,0.1,0.1,0.1c0.4,0.2,0.7,0.5,1.1,0.7c0.2,0.1,0.3,0.2,0.5,0.3
	c0.6,0.4,1.1,0.7,1.7,1.1c0.2,0.1,0.3,0.2,0.5,0.3c0.4,0.2,0.9,0.5,1.3,0.7c0.2,0.1,0.5,0.2,0.7,0.4c0.3,0.2,0.6,0.3,0.9,0.5
	c0.1,0,0.1,0.1,0.2,0.1c0.1,0.1,0.3,0.1,0.4,0.2c0.5,0.2,1,0.5,1.5,0.7c0.1,0,0.2,0.1,0.3,0.1c0.6,0.2,1.1,0.5,1.7,0.7
	c0.1,0.1,0.3,0.1,0.4,0.2c0.5,0.2,1.1,0.4,1.6,0.6c0.1,0,0.1,0,0.2,0.1c0.6,0.2,1.2,0.4,1.8,0.6c0.1,0,0.3,0.1,0.4,0.1
	c0.6,0.2,1.2,0.4,1.9,0.5c40.3,7.4,52-24.2,52-24.2c-9.8,12.8-27.3,16.2-43.8,12.4c-0.6-0.1-1.2-0.3-1.8-0.5c-0.2,0-0.3-0.1-0.5-0.1
	c-0.6-0.2-1.2-0.4-1.8-0.6c-0.1,0-0.2-0.1-0.2-0.1c-0.5-0.2-1-0.4-1.6-0.6c-0.1-0.1-0.3-0.1-0.4-0.2c-0.6-0.2-1.1-0.5-1.7-0.7
	c-0.1,0-0.2-0.1-0.3-0.1c-0.5-0.2-1-0.4-1.4-0.7c-0.1-0.1-0.3-0.1-0.4-0.2c-0.4-0.2-0.7-0.4-1.1-0.6c-0.2-0.1-0.5-0.3-0.7-0.4
	c-0.4-0.2-0.9-0.5-1.3-0.7c-0.1-0.1-0.3-0.2-0.4-0.2c-0.6-0.3-1.2-0.7-1.7-1.1c-0.2-0.1-0.3-0.2-0.5-0.3c-0.4-0.3-0.8-0.5-1.2-0.8
	c-0.1-0.1-0.3-0.2-0.4-0.3c-0.4-0.3-0.8-0.6-1.2-0.8c-0.2-0.1-0.3-0.3-0.5-0.4c-0.4-0.3-0.7-0.5-1-0.8c-0.2-0.1-0.3-0.2-0.5-0.4
	c-0.4-0.4-0.9-0.7-1.3-1.1c0,0-0.1-0.1-0.1-0.1c-0.5-0.4-0.9-0.8-1.4-1.2c-0.1-0.1-0.3-0.2-0.4-0.4c-0.3-0.3-0.7-0.6-1-1
	c-0.1-0.1-0.3-0.3-0.4-0.4c-0.4-0.4-0.8-0.8-1.2-1.3c0,0,0,0-0.1-0.1c-0.4-0.5-0.8-0.9-1.2-1.4c-0.1-0.1-0.2-0.3-0.3-0.4
	c-0.3-0.4-0.6-0.7-0.9-1.1c-0.1-0.1-0.2-0.3-0.3-0.4c-0.3-0.4-0.7-0.9-1-1.4c-9.2-12.5-12.5-29.8-5.1-44"/>
<path class="st1" d="M33.2,217.9c-6,8.7-5.7,20.3-1,29.5c0.8,1.5,1.7,3,2.7,4.5c0.9,1.3,1.9,2.8,3.1,3.9c0.4,0.5,0.9,0.9,1.4,1.4
	c0.1,0.1,0.2,0.2,0.4,0.4c0.5,0.4,0.9,0.9,1.4,1.3c0,0,0,0,0.1,0c0,0,0,0,0,0c0.5,0.5,1.1,0.9,1.6,1.3c0.1,0.1,0.2,0.2,0.4,0.3
	c0.6,0.4,1.1,0.8,1.7,1.2c0,0,0,0,0,0c0.3,0.2,0.5,0.3,0.8,0.5c0.1,0.1,0.2,0.2,0.4,0.2c0.4,0.3,0.8,0.5,1.3,0.8
	c0.1,0,0.1,0.1,0.2,0.1c0.4,0.2,0.7,0.4,1.1,0.6c0.1,0.1,0.3,0.1,0.4,0.2c0.3,0.1,0.5,0.3,0.8,0.4c0,0,0.1,0,0.1,0.1
	c0.5,0.3,1.1,0.5,1.6,0.8c0.1,0.1,0.2,0.1,0.4,0.1c0.4,0.2,0.9,0.4,1.3,0.5c0.2,0.1,0.4,0.1,0.6,0.2c0.4,0.1,0.8,0.3,1.2,0.4
	c0.2,0.1,0.4,0.1,0.5,0.2c0.6,0.2,1.2,0.4,1.8,0.5c31.1,5.2,38.3-18.8,38.3-18.8c-6.5,9.3-19,13.8-32.4,10.3
	c-0.6-0.2-1.2-0.3-1.8-0.5c-0.2-0.1-0.4-0.1-0.5-0.2c-0.4-0.1-0.8-0.3-1.2-0.4c-0.2-0.1-0.4-0.1-0.6-0.2c-0.4-0.2-0.9-0.3-1.3-0.5
	c-0.1-0.1-0.2-0.1-0.4-0.2c-0.5-0.2-1.1-0.5-1.6-0.8c-0.3-0.1-0.5-0.3-0.8-0.4c-0.2-0.1-0.3-0.2-0.5-0.2c-0.3-0.2-0.7-0.4-1-0.6
	c-0.1,0-0.2-0.1-0.2-0.1c-0.4-0.2-0.8-0.5-1.2-0.8c-0.1-0.1-0.2-0.2-0.4-0.3c-0.3-0.2-0.5-0.4-0.8-0.5c-0.6-0.4-1.1-0.8-1.7-1.2
	c-0.1-0.1-0.3-0.2-0.4-0.3c-5.9-4.6-10.5-10.9-12.7-18.1c-2.3-7.4-1.8-15.8,2.2-22.6"/>
<path class="st1" d="M54.9,210.4c-3.6,5.2-3.9,11.7-1.4,17.5c2.6,6.1,7.9,10.9,14.1,13.2c0.3,0.1,0.5,0.2,0.8,0.3
	c0.1,0,0.2,0.1,0.3,0.1c0.4,0.1,0.7,0.2,1.1,0.3c17.2,3.3,21.8-8.8,23.1-10.6c-4.1,5.9-10.9,7.3-19.4,5.2c-0.7-0.2-1.4-0.4-2-0.6
	c-0.8-0.3-1.6-0.6-2.4-1c-1.5-0.7-2.9-1.6-4.2-2.6c-7.5-5.7-12.2-16.6-7.3-25.5"/>
<path class="st1" d="M248.5,312.2l-5,11.3h-5.5l0.4-10.3l-4,10.3h-5.3l-0.1-11.3l0.6-2.8h3.8l-0.7,11.1l4.2-11.1h5.2l-0.4,11.3
	l4.1-11.3h3.3L248.5,312.2L248.5,312.2z"/>
<path class="st1" d="M257.1,315.6c0.5-2.2,0.3-2.6-0.8-2.6h-1.7l-1.1,5.2l-1.7,5.4h-3.2l2.6-12.2l0.4-1.8h2.9l0.4,0.8
	c0,0,1.7-1,3.3-1c3.5,0,3.2,2.6,2.5,6.3L257.1,315.6L257.1,315.6z"/>
<path class="st1" d="M267.5,307.7c-1.4,0-2.3-0.4-2-2.1c0.4-1.7,1.5-2.1,2.9-2.1c1.4,0,2.3,0.4,1.9,2.1
	C270,307.2,268.9,307.7,267.5,307.7L267.5,307.7z M266,323.5h-3.2l0.6-5.5l1.1-5.1l-2.2-0.5l0.6-3h6L266,323.5L266,323.5z"/>
<path class="st1" d="M279.7,312.4l-4,0.5l-1.1,5.4c-0.3,1.5-0.3,1.9,1,1.9h2.6l-0.6,2.8c0,0-2.4,0.7-3.4,0.7c-4.1,0-4-2.2-3.3-5.6
	l1.1-5.3l-2.2-0.5l0.7-3h2.3l1.3-3.5h3.1l-0.8,3.5h3.9L279.7,312.4L279.7,312.4z"/>
<path class="st1" d="M287.9,312.6c-1.9,0-2.8,1-3.2,2.7l5.3-0.4C290.3,313.7,290,312.6,287.9,312.6L287.9,312.6z M284.2,317.8
	c-0.2,1.7,0.4,2.3,2.6,2.3h5.5l-0.5,2.6c0,0-3.3,0.9-5.8,0.9c-6.2,0-6.2-3.5-5.4-7.2c0.8-3.6,2.2-7.3,8.2-7.3c5.7,0,6,3.5,4.6,8.6
	L284.2,317.8L284.2,317.8z"/>
<path class="st1" d="M306,323.5h-3.2l0.6-5.5l2.2-10.5l-2.2-0.5l0.7-3h6L306,323.5L306,323.5z"/>
<path class="st1" d="M317.4,312.6c-1.9,0-2.8,1-3.2,2.7l5.3-0.4C319.7,313.7,319.5,312.6,317.4,312.6L317.4,312.6z M313.7,317.8
	c-0.2,1.7,0.4,2.3,2.6,2.3h5.5l-0.6,2.6c0,0-3.3,0.9-5.8,0.9c-6.2,0-6.2-3.5-5.4-7.2c0.8-3.6,2.2-7.3,8.2-7.3c5.7,0,6,3.5,4.6,8.6
	L313.7,317.8L313.7,317.8z"/>
<path class="st1" d="M337.3,312.8c0,0-4,0-5.1,0c-2.3,0-2.6,0.7-2.8,1.5l-0.1,0.7l7.4,0.6c0,0,0,2.4-0.3,3.7
	c-0.4,2.2-2.8,4.5-6.9,4.5c-2.1,0-5.4-0.8-5.4-0.8l0.6-2.7h5.1c2.3,0,2.6-0.6,2.7-1.2l0.2-0.9l-7.3-0.6c0,0-0.3-1.8,0.1-3.6
	c0.6-2.5,2.8-4.6,7-4.6c2.1,0,5.4,0.8,5.4,0.8L337.3,312.8L337.3,312.8z"/>
<path class="st1" d="M351.1,312.8c0,0-4,0-5.1,0c-2.3,0-2.6,0.7-2.8,1.5l-0.1,0.7l7.4,0.6c0,0,0,2.4-0.3,3.7
	c-0.4,2.2-2.8,4.5-6.9,4.5c-2.1,0-5.4-0.8-5.4-0.8l0.6-2.7h5.1c2.3,0,2.6-0.6,2.7-1.2l0.2-0.9l-7.3-0.6c0,0-0.3-1.8,0.1-3.6
	c0.6-2.5,2.8-4.6,7-4.6c2.1,0,5.4,0.8,5.4,0.8L351.1,312.8L351.1,312.8z"/>
<path class="st1" d="M355.5,325.7h-2.8l0.1-2.1c-1-0.1-1.5-0.8-1.3-2c0.4-1.7,1.4-2.1,2.9-2.1c1.4,0,2.3,0.4,1.9,2.1L355.5,325.7
	L355.5,325.7z"/>
<path class="st1" d="M373.9,312.9c-2.1,0-2.8,1.2-3.3,3.5c-0.5,2.3-0.3,3.6,1.7,3.6h2.9l1.6-7.1H373.9z M378.6,321.7l-0.4,1.8
	l-2.9,0l-0.4-0.9c0,0-2.5,1.1-4.3,1.1c-4.4,0-4.6-3.6-3.8-7.3c0.8-3.7,2.5-7.2,6.9-7.2c1.6,0,3.7,0.8,3.7,0.8l1.8-5.9h3.2
	L378.6,321.7L378.6,321.7z"/>
<path class="st1" d="M390,312.8c-2.7,0-3.5,1.5-4,3.7c-0.4,2.2-0.2,3.8,2.4,3.8c2.8,0,3.6-1.5,4.1-3.8
	C392.9,314.4,392.8,312.8,390,312.8L390,312.8z M387.6,323.7c-5.7,0-6.1-3.5-5.4-7.2c0.8-3.7,2.8-7.2,8.5-7.2c5.6,0,6.2,3.5,5.4,7.2
	C395.3,320.2,393.3,323.7,387.6,323.7z"/>
<path class="st1" d="M419.8,323.5l0.6-5.4l0.3-1.5c0.4-2.1,0.7-3.6-1.4-3.6h-1.7c0.1,1.1-0.1,2.3-0.4,3.5l-1.5,7h-3.2l0.6-5.4
	l0.3-1.5c0.4-2.1,0.7-3.6-1.4-3.6h-1.4l-2.3,10.6h-3.7l3-14.1h2.9l0.4,0.9c0,0,2-1,3.5-1c1.2,0,2.1,0.6,2.4,1.2
	c0.7-0.4,2.6-1.2,4.1-1.2c4.4,0,4.3,3.6,3.5,7.2l-1.5,7L419.8,323.5L419.8,323.5z"/>
<path class="st1" d="M434.4,312.8c-2.7,0-3.5,1.5-4,3.7c-0.4,2.2-0.2,3.8,2.4,3.8c2.8,0,3.6-1.5,4.1-3.8
	C437.4,314.4,437.2,312.8,434.4,312.8z M432.1,323.7c-5.7,0-6.1-3.5-5.4-7.2c0.8-3.7,2.8-7.2,8.5-7.2c5.6,0,6.2,3.5,5.4,7.2
	C439.8,320.2,437.8,323.7,432.1,323.7z"/>
<path class="st1" d="M450.1,315.6c0.5-2.2,0.3-2.6-0.8-2.6h-1.7l-1.1,5.2l-1.7,5.4h-3.2l2.6-12.2l0.4-1.8h2.9l0.4,0.8
	c0,0,1.7-1,3.3-1c3.5,0,3.2,2.6,2.5,6.3L450.1,315.6L450.1,315.6z"/>
<path class="st1" d="M462.4,312.6c-1.9,0-2.8,1-3.2,2.7l5.3-0.4C464.8,313.7,464.5,312.6,462.4,312.6L462.4,312.6z M458.7,317.8
	c-0.2,1.7,0.4,2.3,2.6,2.3h5.5l-0.5,2.6c0,0-3.3,0.9-5.8,0.9c-6.2,0-6.2-3.5-5.4-7.2c0.8-3.6,2.2-7.3,8.2-7.3c5.7,0,6,3.5,4.6,8.6
	L458.7,317.8L458.7,317.8z"/>
<path class="st1" d="M470.9,323.7c-1.4,0-2.3-0.4-2-2.1c0.3-1.7,1.4-2.1,2.9-2.1c1.3,0,2.3,0.4,1.9,2.1
	C473.4,323.3,472.3,323.7,470.9,323.7z"/>
</svg>
