<?xml version="1.0" encoding="utf-8"?>
<!-- Generator: Adobe Illustrator 21.0.2, SVG Export Plug-In . SVG Version: 6.00 Build 0)  -->
<svg version="1.1" id="Слой_1" xmlns="http://www.w3.org/2000/svg" xmlns:xlink="http://www.w3.org/1999/xlink" x="0px" y="0px"
	 viewBox="0 0 269.6 269.4" style="enable-background:new 0 0 269.6 269.4;" xml:space="preserve">
<style type="text/css">
	.st0{fill:#017FFA;}
	.st1{fill:none;}
	.st2{font-family:'MicrosoftSansSerif';}
	.st3{font-size:60px;}
</style>
<g transform="translate(0.000000,298.000000) scale(0.100000,-0.100000)">
	<path d="M649.3,2007.7"/>
	<path d="M801.3,1951.7l-7-102"/>
	<path class="st0" d="M1900.9,613.2c0,0,4.8,55.1,7,73.4c5.4,44.6,18.1,149.5,23.7,193.8c4.4,35.1,18,47.2-50.6,0.8
		c-83.1-56.1-182.5-106.6-258-132c-93.9-31.6-208-45-280-45c-132,1-380,62-380,94c0,6,32,43,70,81c39,38,70,72,70,76
		c0,3,21.7,2.3-92,18c-51,7-122,16-158,21s-108,14-160,20s127.2-15.6-165,20c-38,4.6-57,8.2-112,15c-29.1,3.6-44.4,6.5-44,2
		c24.3-245.3,27.1-304.9,31-332c15.4-107.9,25-206,30-250c21.1-151,21-165,27-165c2,0,44,41,93,90l88,91l49-29
		c207-121,455-180,707-169c282,13,509.3,98.7,750,267c121.8,85.2,134.8,107.5,108.4,105.6"/>
</g>
<path class="st0" d="M236.9,79.4c0,0-5.5-0.5-7.3-0.7c-4.5-0.5-14.9-1.8-19.4-2.4c-3.5-0.4-4.7-1.8-0.1,5.1
	c5.6,8.3,10.7,18.2,13.2,25.8c3.2,9.4,4.5,20.8,4.5,28c-0.1,13.2-6.2,38-9.4,38c-0.6,0-4.3-3.2-8.1-7c-3.8-3.9-7.2-7-7.6-7
	c-0.3,0-0.2-2.2-1.8,9.2c-0.7,5.1-1.6,12.2-2.1,15.8c-0.5,3.6-1.4,10.8-2,16c-0.6,5.2,1.6-12.7-2,16.5c-0.5,3.8-0.8,5.7-1.5,11.2
	c-0.4,2.9-0.6,4.4-0.2,4.4c24.5-2.4,30.5-2.7,33.2-3.1c10.8-1.5,20.6-2.5,25-3c15.1-2.1,16.5-2.1,16.5-2.7c0-0.2-4.1-4.4-9-9.3
	l-9.1-8.8l2.9-4.9c12.1-20.7,18-45.5,16.9-70.7c-1.3-28.2-9.9-50.9-26.7-75c-8.5-12.2-10.8-13.5-10.6-10.8"/>
<path class="st0" d="M79.8,32.7c0,0-0.5,5.5-0.7,7.3c-0.5,4.5-1.8,14.9-2.4,19.4c-0.4,3.5-1.8,4.7,5.1,0.1
	c8.3-5.6,18.2-10.7,25.8-13.2c9.4-3.2,20.8-4.5,28-4.5c13.2,0.1,38,6.2,38,9.4c0,0.6-3.2,4.3-7,8.1c-3.9,3.8-7,7.2-7,7.6
	c0,0.3-2.2,0.2,9.2,1.8c5.1,0.7,12.2,1.6,15.8,2.1c3.6,0.5,10.8,1.4,16,2c5.2,0.6-12.7-1.6,16.5,2c3.8,0.5,5.7,0.8,11.2,1.5
	c2.9,0.4,4.4,0.6,4.4,0.2C230.3,52,230,46,229.6,43.3c-1.5-10.8-2.5-20.6-3-25c-2.1-15.1-2.1-16.5-2.7-16.5c-0.2,0-4.4,4.1-9.3,9
	l-8.8,9.1l-4.9-2.9C180.2,4.9,155.4-1,130.2,0.1C102,1.4,79.3,10,55.2,26.8C43,35.3,41.7,37.6,44.4,37.4"/>
<path class="st0" d="M32.7,189.8c0,0,5.5,0.5,7.3,0.7c4.5,0.5,14.9,1.8,19.4,2.4c3.5,0.4,4.7,1.8,0.1-5.1
	c-5.6-8.3-10.7-18.2-13.2-25.8c-3.2-9.4-4.5-20.8-4.5-28c0.1-13.2,6.2-38,9.4-38c0.6,0,4.3,3.2,8.1,7c3.8,3.9,7.2,7,7.6,7
	c0.3,0,0.2,2.2,1.8-9.2c0.7-5.1,1.6-12.2,2.1-15.8s1.4-10.8,2-16c0.6-5.2-1.6,12.7,2-16.5c0.5-3.8,0.8-5.7,1.5-11.2
	c0.4-2.9,0.6-4.4,0.2-4.4C52,39.3,46,39.6,43.3,40c-10.8,1.5-20.6,2.5-25,3C3.2,45.1,1.8,45.1,1.8,45.7c0,0.2,4.1,4.4,9,9.3l9.1,8.8
	L17,68.7C4.9,89.4-1,114.2,0.1,139.4c1.3,28.2,9.9,50.9,26.7,75c8.5,12.2,10.7,13.5,10.6,10.8"/>
<polygon class="st1" points="205.9,164.2 64.9,164.8 64.9,103.5 205.9,102.8 "/>
<text transform="matrix(1 0 0 1 68.3659 145.78)" class="st2 st3">Agile</text>
</svg>
