<svg xmlns="http://www.w3.org/2000/svg" width="612" height="792" viewBox="0 0 612 792"><path fill-rule="evenodd" clip-rule="evenodd" fill="#BBB8B8" d="M53.914 745.105c-5.055-6.556-7.042-13.773-7.036-22.231.175-215.457.141-430.915.147-646.372 0-2.166.061-4.331.093-6.496 1.261-2.977 1.338-6.518 3.961-8.834 1.314-1.161 3.028-2.838 3.631.674-1.148 5.763-1.104 11.585-1.104 17.417.017 156.057.011 312.113.016 468.169 0 1.833.016 3.664-.135 5.492.289 15.474.121 30.949.114 46.424-.019 42.602.133 85.203-.056 127.793-1.319 9.348 3.049 16.279 9.538 22.295 1.541 1.429 3.718 2.412 3.355 5.086-2.191 1.919-3.61-.207-4.916-1.223-2.953-2.297-5.34-5.21-7.608-8.194z"/><path fill-rule="evenodd" clip-rule="evenodd" fill="#C9C7C7" d="M54.263 60.024c-2.871.944-3.524 3.667-4.712 5.938-.732 1.4-.639 3.283-2.433 4.043-.822-7.53 2.462-13.43 7.178-18.926C65.878 37.581 81.754 32.284 98.14 28.212c19.572-4.864 39.535-7.663 59.521-10.226 17.708-2.271 35.434-4.187 53.285-5.148 11.737-.632 23.47-1.348 35.215-1.94 31.438-1.586 62.883-.505 94.32-.913 13.465-.175 26.909.74 40.336 1.256 20.631.791 41.276 2.502 61.784 4.934 28.355 3.363 56.771 6.868 84.267 15.051 13.403 3.989 25.604 10.447 34.506 21.7 3.873 4.895 6.426 10.5 5.51 17.078-2.5.247-2.796-1.849-3.473-3.401-1.139-2.612-2.722-4.815-5.121-6.403-7.487-11.304-18.671-17.24-31.061-21.409-21.277-7.159-43.405-10.18-65.503-13.27-11.865-1.658-23.723-3.413-35.691-4.272-14.098-1.014-28.188-2.085-42.296-2.986-36.925-2.358-73.873-2.084-110.807-1.636-24.089.292-48.176 1.59-72.231 3.542-28.743 2.332-57.237 6.221-85.59 11.313-11.495 2.065-22.768 5-33.646 9.316-9.418 3.736-18.053 8.581-23.984 17.2-.762 1.106-1.673 2.103-3.218 2.026z"/><path fill-rule="evenodd" clip-rule="evenodd" fill="#BBB8B8" d="M565.024 736.065c-.736 3.51-3.112 6.124-4.938 9.039-2.216 2.921-4.554 5.767-7.42 8.042-1.361 1.082-2.76 3.183-5.067 1.461-.481-2.697 1.698-3.694 3.244-5.106 6.536-5.973 10.831-12.924 9.644-22.258-.121-58.094-.223-116.175.025-174.257-.266-3.327-.133-6.66-.133-9.989-.007-155.232-.012-310.465.029-465.697.001-3.427-.798-7.035 1.372-10.201 3.664-.021 3.163 3.262 3.95 5.304.706 1.831.26 3.958.26 5.955.007 216.113.007 432.226.007 648.339 0 3.157.102 6.324-.973 9.368z"/><path fill-rule="evenodd" clip-rule="evenodd" fill="#DDDBDB" d="M547.824 754.798c5.465-1.489 7.694-7.069 12.261-9.694-2.044 6.607-7.629 9.901-12.914 13.224-12.411 7.803-26.416 11.444-40.522 14.646-15.171 3.442-30.563 5.839-45.967 7.707-13.45 1.632-26.886 3.541-40.448 4.472-16.448 1.128-32.89 2.159-49.36 2.949-37.534 1.801-75.08.847-112.613.726-19.539-.063-39.104-1.443-58.598-2.981-13.661-1.077-27.277-2.945-40.895-4.652-20.049-2.514-40.007-5.406-59.618-10.244-13.236-3.265-26.247-7.372-37.219-16.006-3.383-2.661-6.937-5.264-8.015-9.838 4.568 2.624 6.799 8.204 12.262 9.698 1.025-.25 2.011-.043 2.903.428 19.365 10.221 40.62 13.651 61.837 17.175 20.547 3.412 41.208 6.036 61.955 7.792 12.759 1.079 25.552 1.84 38.358 2.448 21.621 1.026 43.254 1.363 64.882 1.793 25.112.499 50.249-.145 75.325-1.124 46.289-1.809 92.36-6.214 137.806-15.771 11.656-2.451 22.73-6.477 33.449-11.584 1.613-.772 3.134-2.05 5.131-1.164z"/><path fill-rule="evenodd" clip-rule="evenodd" fill="#BBB9B8" d="M565.024 736.065l-.025-657.979c0-3.951.257-7.974-2.924-11.087-2.797-1.647-3.48-4.004-2.342-6.973 2.877.938 3.526 3.664 4.716 5.936.733 1.399.638 3.284 2.435 4.042.032 3.163.096 6.327.096 9.49.004 215.684.003 431.367.009 647.051-.001 3.316.202 6.658-1.965 9.52z"/><path fill-rule="evenodd" clip-rule="evenodd" fill="#FEFEFE" d="M559.733 60.026l2.341 6.973c-.046 3.662-.133 7.325-.134 10.987-.007 157.038-.006 314.075-.005 471.113 0 1.332.031 2.664.048 3.996-2.115 1.78-4.689 1.496-7.161 1.511-8.826.054-17.653.021-26.48.021-155.389 0-310.777.006-466.165-.035-3.421-.001-7.046.822-10.16-1.497.016-81.993.043-163.986.046-245.979.003-78.994-.004-157.987-.083-236.981-.003-3.623 1.1-6.837 2.281-10.11 10.888-17.358 29.017-22.287 47.07-26.948 19.083-4.927 38.636-7.478 58.155-10.025 23.989-3.132 48.084-4.849 72.247-6.271 39.414-2.319 78.826-1.66 118.242-1.579 15.424.031 30.893.696 46.258 2.025 20.925 1.811 41.87 3.38 62.695 6.505 18.001 2.701 36.044 5.058 53.747 9.323 11.622 2.802 22.995 6.388 33.271 12.892 5.771 3.652 10.035 8.561 13.787 14.079z"/><path fill-rule="evenodd" clip-rule="evenodd" fill="#030204" d="M52.017 553.096h509.966l-.039 175.836c-1.183 9.97-7.261 16.419-15.38 21.408-7.999 4.914-16.529 8.586-25.565 11.135-23.49 6.627-47.661 9.438-71.729 12.797-22.104 3.084-44.36 4.652-66.63 5.737-15.774.769-31.563 1.624-47.381 1.407-7.382-.008-14.76-.097-22.137.069-4.047.104-8.095.07-12.142.014-7.379-.226-14.762-.054-22.137-.081-31.137-.293-62.232-1.621-93.215-4.854-28.662-2.992-57.245-6.566-85.358-13.163-11.597-2.722-22.655-6.75-32.829-13.047-8.106-5.018-14.204-11.447-15.386-21.423l-.038-175.835z"/><path fill-rule="evenodd" clip-rule="evenodd" fill="#8C8989" d="M52.055 728.931c5.486 17.028 19.642 23.791 34.844 29.049 18.557 6.419 37.951 9.039 57.257 12.045 23.405 3.644 46.958 5.893 70.555 7.696 10.04.767 20.122 1.017 30.189 1.396 11.068.419 22.14.718 33.211 1.068 7.601.535 15.202.569 22.801-.026l12.181-.001c7.601.599 15.201.56 22.803.029 19.976-.752 39.971-1.146 59.919-2.347 23.951-1.443 47.825-3.826 71.568-7.499 18.006-2.785 36.074-5.209 53.587-10.404 12.292-3.647 24.17-8.126 33.452-17.711 3.755-3.878 5.367-8.67 7.521-13.295.587 9.303-4.053 16.104-10.661 21.859-1.382 1.203-3.03 2.036-3.458 4.008-18.096 10.64-38.269 14.672-58.567 18.063a1041.69 1041.69 0 0 1-47.638 6.857c-12.662 1.52-25.416 2.3-38.141 3.259-20.893 1.574-41.825 1.902-62.771 2.305-11.119.213-22.182 1.05-33.304-.109-3.068-.32-6.258.772-9.386.732-19.129-.243-38.279-.168-57.381-1.074-25.157-1.193-50.33-2.712-75.314-5.999-23.119-3.042-46.289-5.986-68.929-11.878-10.589-2.755-21.003-5.97-30.219-12.151-2.452-4.573-7.525-6.715-10.108-11.348-2.576-4.625-4.442-9.187-4.011-14.524z"/><path fill-rule="evenodd" clip-rule="evenodd" fill="#136AAF" d="M176.202 181.801c-1.963 8.285-5.179 15.899-7.13 23.927-9.214 37.919-3.858 74.271 13.87 108.453 27.985 53.96 72.042 88.784 131.107 102.936 40.051 9.596 79.688 6.836 117.146-12.199 13.946-7.087 26.085-16.601 36.289-28.516.959-1.119 1.989-2.178 3.052-3.336.845 1.697-.352 2.74-.909 3.819-24.689 47.714-63.326 76.437-116.477 85.226-107.23 17.733-194.158-58.96-214.642-140.944-9.53-38.143-7.167-75.026 14.568-108.933 6.854-10.693 15.371-20.319 23.126-30.433z"/><path fill-rule="evenodd" clip-rule="evenodd" fill="#136AAF" d="M265.163 150.94c-3.558 9.952-6.803 19.792-8.203 30.207-3.68 27.395 2.504 52.753 16.954 75.865 24.774 39.631 60.6 63.345 107.112 68.499 37.927 4.203 71.143-6.719 96.261-37.155.39-.473.902-.843 1.82-1.686-.451 4.528-2.596 7.765-4.399 11.007-18.842 33.877-47.825 52.659-86.102 57.433-16.652 2.077-33.366 1.804-49.687-1.767-17.549-3.839-33.468-11.937-47.986-22.539-27.909-20.383-47.129-46.827-54.352-80.958-6.253-29.549-1.547-57.218 16.604-82.011 4.079-5.568 7.99-11.26 11.978-16.895z"/><path fill-rule="evenodd" clip-rule="evenodd" fill="#136AAF" d="M338.291 133.424c-19.174 45.876 19.278 99.385 68.532 107.567 14.513 2.411 28.738 2.864 42.633-2.956 6.985-2.926 12.81-7.438 18.243-12.677-4.553 9.59-11.131 17.447-19.64 23.712-16.007 11.782-34.289 13.877-53.234 11.722-34.402-3.913-65.29-31.6-73.14-65.355-4.443-19.108-1.2-36.968 10.17-53.153 2.098-2.987 4.288-5.909 6.436-8.86z"/><path fill-rule="evenodd" clip-rule="evenodd" fill="#FFF" d="M257.99 669.444c1.695 1.867 5.866-1.243 5.764 3.015-.164 6.853-2.511 9.647-7.456 9.644-9.485-.009-18.974.118-28.454-.104-12.519-.293-19.218-7.236-19.301-19.743-.056-8.453 2.06-16.414 6.202-23.75 7.215-12.778 21.343-18.188 35.494-13.78 10.254 3.194 16.178 13.132 14.262 23.664-1.334 7.339-4.233 14.19-6.511 21.054z"/><path fill-rule="evenodd" clip-rule="evenodd" fill="#FEFEFE" d="M342.209 664.107c-3.5 0-7.001-.069-10.498.027-1.828.052-4.344-.848-4.668 2.224-.304 2.876 1.125 4.876 3.899 5.545 1.921.464 3.957.551 5.947.599 3.664.09 7.332.025 10.998.026 7.296 0 7.584.481 5.109 7.447-.451 1.269-.924 2.149-2.309 2.093-9.125-.368-18.346 1.172-27.37-1.008-6.761-1.633-9.473-5.273-9.398-12.108.077-7.063 1.68-13.841 4.789-20.16 5.51-11.202 22.246-16.399 33.182-10.483 5.392 2.916 6.656 8.04 6.924 13.476.562 11.43-.377 12.322-11.605 12.322h-5zm-50.944 17.961c-3.329 0-6.661.092-9.986-.019-7.92-.265-12.028-4.157-12.076-12.091-.066-10.863 3.274-21.265 4.925-31.899.408-2.627 2.761-1.865 4.472-1.9 8.71-.179 8.639-.175 6.837 8.169-1.364 6.318-2.672 12.657-3.711 19.035-.868 5.325.394 6.636 5.638 6.776 7.82.21 7.849.217 9.495-7.443 1.496-6.961 3.137-13.902 4.298-20.921.722-4.362 2.464-6.078 7.118-5.752 6.634.464 6.576.098 5.173 6.541-2.538 11.654-5.131 23.302-7.342 35.02-.646 3.427-1.702 4.963-5.358 4.589-3.13-.319-6.319-.065-9.482-.065l-.001-.04z"/><path fill-rule="evenodd" clip-rule="evenodd" fill="#FFF" d="M408.324 656.681c5.424-7.913 11.023-15.714 16.181-23.797 1.945-3.049 3.984-4.399 7.592-4.06 3.427.322 6.907.069 11.31.069-7.621 10.11-14.81 19.559-21.896 29.083-5.008 6.73-11.18 12.847-12.147 21.829-.204 1.893-1.265 2.497-3.026 2.311-.658-.07-1.332.009-1.997-.013-2.977-.098-7.037.928-8.646-.609-1.894-1.809.871-5.363 1.342-8.217.945-5.727-2.052-10.638-3.271-15.892-1.728-7.449-1.976-7.005 5.507-7.516 5.267-.359 8.192.985 9.051 6.812z"/><path fill-rule="evenodd" clip-rule="evenodd" fill="#FEFEFE" d="M384.009 636.464c4.472 0 8.982-.371 13.404.099 4.953.526 7.547 4.104 7.576 8.866.016 2.524-1.702 2.01-3.065 2.021-6.313.049-12.63.118-18.94-.022-2.609-.059-3.76.706-4.274 3.455-1.703 9.101-4.035 18.091-5.512 27.224-.593 3.666-2.149 4.087-5.201 4.056-8.588-.087-8.507.032-6.635-8.344 2.521-11.28 5.063-22.562 7.238-33.91.624-3.253 1.993-3.999 4.943-3.815 3.476.215 6.975.05 10.464.05l.002.32zm-204.951 64.643c-8.401-.04-8.281-.013-6.452-8.208.708-3.174.85-5.355 5.48-4.447 4.085.802 5.051-3.612 5.814-6.755 2.109-8.678 4.335-17.358 5.746-26.161.754-4.709 2.585-5.861 7.056-5.643 7.772.379 7.807.108 6.137 7.591-2.305 10.328-4.305 20.741-7.069 30.945-2.699 9.97-6.834 12.724-16.712 12.678z"/><path fill-rule="evenodd" clip-rule="evenodd" fill="#F9F9F9" d="M198.021 647.368c-1.743-1.489-5.469 1.976-5.854-2.144-.533-5.693 2.26-9.062 6.611-9.089.333-.002.665 0 .997 0 8.008-.007 8.896 1.417 5.711 9.01-1.633 3.895-5.022.938-7.465 2.223z"/><path fill-rule="evenodd" clip-rule="evenodd" fill="#ABA8A9" d="M300.913 780.159c-7.599 1.414-15.199 1.315-22.801.026l22.801-.026zm34.983.029c-7.602 1.281-15.203 1.392-22.803-.029l22.803.029z"/><path fill-rule="evenodd" clip-rule="evenodd" fill="#030304" d="M237.241 669.89c-2.251 0-4.092.114-5.916-.021-4.931-.367-7.947-3.277-8.35-8.18-.561-6.817.977-13.238 4.424-19.102 3.388-5.764 10.624-8.356 16.965-6.388 4.522 1.404 7.499 6.315 6.324 11.596-1.473 6.622-3.365 13.163-5.359 19.653-1.482 4.829-5.768 1.234-8.088 2.442z"/><path fill-rule="evenodd" clip-rule="evenodd" fill="#121213" d="M337.792 655.906c-1.331 0-2.667.071-3.993-.018-1.574-.106-3.848.771-4.406-1.209-.484-1.724.852-3.527 2.304-4.677 3.553-2.812 7.683-3.214 11.785-1.756 2.536.901 3.885 3.262 3.352 6.038-.529 2.751-2.949 1.355-4.553 1.578-1.47.205-2.991.044-4.489.044z"/></svg>