<?xml version="1.0" encoding="utf-8"?>
<!-- Generator: Adobe Illustrator 21.0.2, SVG Export Plug-In . SVG Version: 6.00 Build 0)  -->
<svg version="1.1" id="Слой_1" xmlns="http://www.w3.org/2000/svg" xmlns:xlink="http://www.w3.org/1999/xlink" x="0px" y="0px"
	 viewBox="0 0 156 46" style="enable-background:new 0 0 156 46;" xml:space="preserve">
<style type="text/css">
	.st0{fill:#4C8CF5;}
	.st1{fill:#FFFFFF;}
	.st2{fill:none;}
</style>
<title>Ресурс 1</title>
<g id="Слой_2">
	<g id="Layer_1">
		<polygon class="st0" points="1.3,42.3 27.4,3.8 53.8,42.3 27.4,15 		"/>
		<polygon class="st0" points="7.8,42.3 27.4,21.5 46.7,42.3 		"/>
		<path class="st1" d="M61.2,3.8h9.5l7.7,27.8l7.9-27.8h9.1v38.5h-6V9.5L80,42.3h-4.7l-9-32.8v32.8h-5.3L61.2,3.8z"/>
		<path class="st1" d="M102.6,3.8h9.6c2.5-0.1,5,0.2,7.5,0.9c2,0.7,3.7,2,4.8,3.8c1.4,2.1,2.1,4.6,2,7.1c0.1,2.3-0.5,4.6-1.6,6.6
			c-1,1.7-2.5,3.1-4.3,4c-1.8,0.8-4.5,1.2-8.2,1.2h-3.3v15h-6.4L102.6,3.8L102.6,3.8z M109,8.8v13.4h3.2c2.8,0,4.8-0.5,5.9-1.6
			s1.6-2.8,1.6-5.2c0.1-1.5-0.3-3-1.1-4.3c-0.5-1-1.4-1.7-2.4-2c-1.3-0.3-2.7-0.5-4.1-0.4L109,8.8z"/>
		<path class="st1" d="M153.9,12.8l-5.3,1.8c-0.4-1.6-1.2-3.1-2.4-4.3c-1.1-1-2.6-1.5-4.1-1.4c-2.6-0.2-4.9,1.8-5.1,4.4
			c0,0.1,0,0.2,0,0.3c-0.1,1.3,0.5,2.5,1.4,3.3c1.8,1.3,3.9,2.2,6,2.9c2,0.8,4,1.7,5.9,2.8c1.4,0.9,2.5,2,3.3,3.5
			c0.9,1.6,1.3,3.3,1.3,5.1c0.1,3-1.1,5.9-3.3,8c-2.2,2.2-5.3,3.3-9.2,3.3c-6.8,0-11.1-3.5-12.8-10.4l5.5-1.5c1,4.6,3.5,6.8,7.5,6.8
			c1.7,0.1,3.3-0.4,4.5-1.5c1.8-1.9,2.1-4.8,0.5-6.9c-0.7-1-2.5-1.9-5.3-3c-2.2-0.8-4.4-1.8-6.4-2.9c-1.4-0.9-2.5-2-3.4-3.5
			c-0.9-1.6-1.4-3.4-1.3-5.2c-0.1-2.8,1.1-5.5,3.1-7.5c2.2-2.1,5.1-3.2,8.2-3C148.3,3.9,152.2,6.9,153.9,12.8z"/>
	</g>
</g>
<rect id="_x3C_Фрагмент_x3E_" class="st2" width="156" height="46"/>
</svg>
