<?xml version="1.0" encoding="utf-8"?>
<!-- Generator: Adobe Illustrator 21.1.0, SVG Export Plug-In . SVG Version: 6.00 Build 0)  -->
<svg version="1.1" id="Layer_1" xmlns="http://www.w3.org/2000/svg" xmlns:xlink="http://www.w3.org/1999/xlink" x="0px" y="0px"
	 viewBox="0 0 155.3 39.4" style="enable-background:new 0 0 155.3 39.4;" xml:space="preserve">
<style type="text/css">
	.st0{fill:#1C3F7B;}
	.st1{fill:#58595B;}
	.st2{fill:#FFFFFF;}
</style>
<g>
	<polygon class="st0" points="-29,-93 -2.6,-132 24.2,-93 -2.6,-120.7 	"/>
	<polygon class="st0" points="-22.4,-93 -2.6,-114.1 17,-93 	"/>
	<g>
		<path d="M32-132h9.5l7.7,27.9l7.9-27.9h9.1v38.7h-6v-33l-9.2,33h-4.7l-9-33v33H32V-132z"/>
		<path d="M73.7-132h9.6c3.1,0,5.5,0.3,7.5,0.9c1.9,0.6,3.5,1.9,4.8,3.8c1.3,2,2,4.3,2,7.1c0,2.5-0.5,4.7-1.6,6.6
			c-1.1,1.8-2.5,3.2-4.3,4c-1.8,0.8-4.5,1.2-8.2,1.2h-3.3v15.1h-6.4V-132z M80.1-127v13.5h3.2c2.8,0,4.8-0.5,5.9-1.6
			c1.1-1.1,1.6-2.8,1.6-5.2c0-1.8-0.4-3.2-1.1-4.3c-0.7-1.1-1.5-1.8-2.4-2c-0.9-0.3-2.2-0.4-4.1-0.4H80.1z"/>
		<path d="M125.4-123.4l-5.5,1.9c-0.6-2-1.5-3.6-2.5-4.5c-1-1-2.5-1.5-4.3-1.5c-1.7,0-3,0.5-3.9,1.5c-0.9,1-1.4,2.1-1.4,3.4
			c0,1.4,0.5,2.6,1.5,3.4c1,0.8,3.1,1.9,6.2,3c2.6,1,4.6,2,6.1,2.9c1.4,0.9,2.6,2.1,3.4,3.6c0.9,1.5,1.3,3.3,1.3,5.3
			c0,3.2-1.1,6-3.4,8.3c-2.3,2.3-5.5,3.4-9.6,3.4c-7.1,0-11.6-3.6-13.3-10.8l5.7-1.6c1,4.8,3.6,7.1,7.8,7.1c2.1,0,3.6-0.5,4.7-1.6
			c1.1-1.1,1.6-2.4,1.6-4c0-1.2-0.4-2.2-1.1-3.2c-0.7-1-2.6-2-5.5-3.1c-3.1-1.2-5.3-2.2-6.7-3c-1.4-0.8-2.5-2-3.5-3.6
			c-1-1.6-1.4-3.4-1.4-5.4c0-3.1,1.1-5.7,3.2-7.8c2.1-2.1,5-3.1,8.5-3.1C119.6-132.7,123.6-129.6,125.4-123.4z"/>
	</g>
	<g>
		<path class="st1" d="M133.7-130.2h1.3v1c0.3-0.8,0.9-1.2,1.7-1.2c0.9,0,1.4,0.4,1.6,1.3c0.3-0.9,0.9-1.3,1.7-1.3
			c0.4,0,0.8,0.1,1,0.3c0.3,0.2,0.5,0.4,0.6,0.7c0.1,0.3,0.2,0.9,0.2,1.7v4.3h-1.4v-4.2c0-0.6-0.1-1.1-0.2-1.3
			c-0.1-0.2-0.3-0.3-0.7-0.3c-0.7,0-1.1,0.6-1.1,1.9v4h-1.4v-4.2c0-0.6,0-1-0.1-1.2c0-0.2-0.1-0.3-0.3-0.4c-0.1-0.1-0.3-0.1-0.5-0.1
			c-0.4,0-0.7,0.1-0.8,0.4c-0.2,0.3-0.3,0.8-0.3,1.5v4h-1.4V-130.2z"/>
		<path class="st1" d="M148.5-126.8c0,2.4-0.9,3.7-2.7,3.7c-0.8,0-1.5-0.3-2-0.9c-0.5-0.6-0.7-1.5-0.7-2.7c0-2.4,0.9-3.6,2.7-3.6
			c0.8,0,1.5,0.3,2,0.9C148.3-128.9,148.5-128,148.5-126.8z M147-126.8c0-1-0.1-1.6-0.3-2c-0.2-0.4-0.5-0.5-0.9-0.5
			c-0.8,0-1.2,0.8-1.2,2.5c0,0.9,0.1,1.5,0.3,1.9c0.2,0.4,0.5,0.6,0.9,0.6c0.4,0,0.7-0.2,0.9-0.6C146.9-125.3,147-125.9,147-126.8z"
			/>
		<path class="st1" d="M153.4-132.6h1.4v9.3h-1.3v-1c-0.3,0.8-0.9,1.2-1.7,1.2c-0.8,0-1.4-0.3-1.7-1c-0.4-0.6-0.6-1.5-0.6-2.5
			c0-1.1,0.2-2,0.6-2.6c0.4-0.6,1-0.9,1.7-0.9c0.7,0,1.3,0.3,1.6,0.9V-132.6z M153.4-127.4c0-0.7-0.1-1.2-0.4-1.5
			c-0.3-0.3-0.5-0.4-0.8-0.4c-0.8,0-1.2,0.8-1.2,2.4c0,1.7,0.4,2.6,1.2,2.6c0.3,0,0.6-0.1,0.8-0.4c0.3-0.3,0.4-0.8,0.4-1.5V-127.4z"
			/>
		<path class="st1" d="M161.5-126.5h-3.9c0,0.9,0.1,1.5,0.4,1.9c0.3,0.3,0.6,0.5,0.9,0.5c0.6,0,1-0.4,1.2-1.3l1.3,0.2
			c-0.3,1.5-1.2,2.2-2.5,2.2c-0.8,0-1.5-0.3-2-0.9c-0.5-0.6-0.7-1.5-0.7-2.6c0-1.2,0.2-2.1,0.7-2.7c0.5-0.6,1.2-1,2-1
			c0.6,0,1.1,0.2,1.5,0.5c0.4,0.3,0.7,0.7,0.8,1.3C161.4-128.1,161.5-127.4,161.5-126.5z M160-127.5c0-1.2-0.4-1.8-1.2-1.8
			c-0.7,0-1.1,0.6-1.2,1.8H160z"/>
		<path class="st1" d="M162.7-130.2h1.2v1.5c0.4-1.1,1-1.7,1.7-1.7c0.1,0,0.2,0,0.3,0v1.5c-0.1,0-0.2,0-0.3,0c-1,0-1.5,0.7-1.5,2
			v3.5h-1.4V-130.2z"/>
		<path class="st1" d="M166.5-130.2h1.3v1.1c0.3-0.8,0.9-1.2,1.7-1.2c0.5,0,0.8,0.1,1.1,0.3c0.3,0.2,0.5,0.5,0.5,0.8
			c0.1,0.3,0.1,0.8,0.1,1.5v4.4h-1.4v-4.3c0-0.6-0.1-1-0.2-1.2c-0.1-0.2-0.3-0.3-0.7-0.3c-0.4,0-0.6,0.1-0.8,0.4
			c-0.2,0.3-0.3,0.8-0.3,1.6v3.8h-1.4V-130.2z"/>
		<path class="st1" d="M133.7-115.1h1.3v1.1c0.4-0.8,0.9-1.2,1.7-1.2c0.7,0,1.3,0.3,1.7,0.9c0.4,0.6,0.6,1.5,0.6,2.6
			c0,1-0.2,1.9-0.6,2.6c-0.4,0.7-1,1.1-1.8,1.1c-0.7,0-1.2-0.3-1.5-0.8v3h-1.4V-115.1z M135.1-111.1c0,0.4,0,0.8,0.1,1
			c0.1,0.2,0.2,0.5,0.4,0.6c0.2,0.2,0.4,0.3,0.7,0.3c0.8,0,1.2-0.8,1.2-2.5c0-1.6-0.4-2.5-1.2-2.5c-0.3,0-0.6,0.2-0.9,0.5
			c-0.2,0.3-0.3,0.8-0.3,1.4V-111.1z"/>
		<path class="st1" d="M140.4-115.1h1.2v1.5c0.4-1.1,1-1.7,1.7-1.7c0.1,0,0.2,0,0.3,0v1.5c-0.1,0-0.2,0-0.3,0c-1,0-1.5,0.7-1.5,2
			v3.5h-1.4V-115.1z"/>
		<path class="st1" d="M149.4-111.7c0,2.4-0.9,3.7-2.7,3.7c-0.8,0-1.5-0.3-2-0.9c-0.5-0.6-0.7-1.5-0.7-2.7c0-2.4,0.9-3.6,2.7-3.6
			c0.8,0,1.5,0.3,2,0.9C149.2-113.8,149.4-112.9,149.4-111.7z M147.9-111.7c0-1-0.1-1.6-0.3-2c-0.2-0.4-0.5-0.5-0.9-0.5
			c-0.8,0-1.2,0.8-1.2,2.5c0,0.9,0.1,1.5,0.3,1.9c0.2,0.4,0.5,0.6,0.9,0.6c0.4,0,0.7-0.2,0.9-0.6
			C147.8-110.2,147.9-110.8,147.9-111.7z"/>
		<path class="st1" d="M152.4-115.1h1.2v1.1h-1.2v5.7H151v-5.7h-0.9v-1.1h0.9c0-0.8,0.1-1.4,0.2-1.7c0.1-0.3,0.3-0.6,0.6-0.7
			c0.3-0.2,0.7-0.3,1.2-0.3c0.3,0,0.6,0,0.8,0.1v1.1c-0.2,0-0.4,0-0.5,0c-0.3,0-0.5,0.1-0.6,0.2c-0.1,0.1-0.2,0.2-0.2,0.4
			C152.4-115.9,152.4-115.6,152.4-115.1z"/>
		<path class="st1" d="M159.4-111.5h-3.9c0,0.9,0.1,1.5,0.4,1.9c0.3,0.3,0.6,0.5,0.9,0.5c0.6,0,1-0.4,1.2-1.3l1.3,0.2
			c-0.3,1.5-1.2,2.2-2.5,2.2c-0.8,0-1.5-0.3-2-0.9c-0.5-0.6-0.7-1.5-0.7-2.6c0-1.2,0.2-2.1,0.7-2.7c0.5-0.6,1.2-1,2-1
			c0.6,0,1.1,0.2,1.5,0.5c0.4,0.3,0.7,0.7,0.8,1.3C159.3-113,159.3-112.3,159.4-111.5z M157.9-112.4c0-1.2-0.4-1.8-1.2-1.8
			c-0.7,0-1.1,0.6-1.2,1.8H157.9z"/>
		<path class="st1" d="M164.7-113.5l-1.1,0.3c-0.2-0.7-0.6-1-1.2-1c-0.3,0-0.5,0.1-0.6,0.2c-0.2,0.2-0.2,0.4-0.2,0.6
			c0,0.3,0.1,0.5,0.2,0.6c0.2,0.1,0.5,0.3,1.1,0.5c0.7,0.2,1.2,0.5,1.6,0.8c0.3,0.3,0.5,0.7,0.5,1.3c0,0.6-0.2,1.1-0.7,1.5
			c-0.5,0.4-1.1,0.6-1.8,0.6c-1.5,0-2.3-0.7-2.5-2l1.2-0.2c0.2,0.8,0.6,1.2,1.3,1.2c0.4,0,0.6-0.1,0.8-0.3c0.2-0.2,0.3-0.4,0.3-0.6
			c0-0.2-0.1-0.3-0.2-0.5c-0.1-0.2-0.5-0.3-1-0.5c-0.5-0.2-0.9-0.3-1.2-0.5c-0.3-0.1-0.5-0.4-0.7-0.6c-0.2-0.3-0.3-0.6-0.3-1
			c0-0.6,0.2-1.1,0.6-1.5c0.4-0.4,1-0.6,1.7-0.6C163.6-115.3,164.3-114.7,164.7-113.5z"/>
		<path class="st1" d="M170.1-113.5l-1.1,0.3c-0.2-0.7-0.6-1-1.2-1c-0.3,0-0.5,0.1-0.6,0.2c-0.2,0.2-0.2,0.4-0.2,0.6
			c0,0.3,0.1,0.5,0.2,0.6c0.2,0.1,0.5,0.3,1.1,0.5c0.7,0.2,1.2,0.5,1.6,0.8c0.3,0.3,0.5,0.7,0.5,1.3c0,0.6-0.2,1.1-0.7,1.5
			c-0.5,0.4-1.1,0.6-1.8,0.6c-1.5,0-2.3-0.7-2.5-2l1.2-0.2c0.2,0.8,0.6,1.2,1.3,1.2c0.4,0,0.6-0.1,0.8-0.3c0.2-0.2,0.3-0.4,0.3-0.6
			c0-0.2-0.1-0.3-0.2-0.5c-0.1-0.2-0.5-0.3-1-0.5c-0.5-0.2-0.9-0.3-1.2-0.5c-0.3-0.1-0.5-0.4-0.7-0.6c-0.2-0.3-0.3-0.6-0.3-1
			c0-0.6,0.2-1.1,0.6-1.5c0.4-0.4,1-0.6,1.7-0.6C169.1-115.3,169.8-114.7,170.1-113.5z"/>
		<path class="st1" d="M172.9-116h-1.5v-1.5h1.5V-116z M171.5-115.1h1.4v6.9h-1.4V-115.1z"/>
		<path class="st1" d="M179.6-111.7c0,2.4-0.9,3.7-2.7,3.7c-0.8,0-1.5-0.3-2-0.9c-0.5-0.6-0.7-1.5-0.7-2.7c0-2.4,0.9-3.6,2.7-3.6
			c0.8,0,1.5,0.3,2,0.9C179.4-113.8,179.6-112.9,179.6-111.7z M178.1-111.7c0-1-0.1-1.6-0.3-2c-0.2-0.4-0.5-0.5-0.9-0.5
			c-0.8,0-1.2,0.8-1.2,2.5c0,0.9,0.1,1.5,0.3,1.9c0.2,0.4,0.5,0.6,0.9,0.6c0.4,0,0.7-0.2,0.9-0.6C178-110.2,178.1-110.8,178.1-111.7
			z"/>
		<path class="st1" d="M181-115.1h1.3v1.1c0.3-0.8,0.9-1.2,1.7-1.2c0.5,0,0.8,0.1,1.1,0.3c0.3,0.2,0.5,0.5,0.5,0.8
			c0.1,0.3,0.1,0.8,0.1,1.5v4.4h-1.4v-4.3c0-0.6-0.1-1-0.2-1.2c-0.1-0.2-0.3-0.3-0.7-0.3c-0.4,0-0.6,0.1-0.8,0.4
			c-0.2,0.3-0.3,0.8-0.3,1.6v3.8H181V-115.1z"/>
		<path class="st1" d="M188.6-113.2l-1.4-0.2c0.1-0.6,0.4-1.1,0.8-1.4c0.5-0.3,1.1-0.5,1.7-0.5c0.6,0,1.1,0.1,1.5,0.4
			c0.4,0.2,0.6,0.5,0.7,0.9c0.1,0.3,0.1,0.9,0.1,1.5v2.3c0,0.9,0,1.6,0.1,1.9H191c-0.1-0.2-0.1-0.6-0.1-1.1
			c-0.4,0.9-1.1,1.3-1.9,1.3c-0.6,0-1-0.2-1.4-0.5c-0.4-0.4-0.5-0.8-0.5-1.5c0-0.7,0.3-1.3,0.8-1.8c0.5-0.4,1.4-0.7,2.7-0.7
			c0.1,0,0.2,0,0.3,0v-0.3c0-0.5-0.1-0.9-0.2-1.1c-0.1-0.2-0.4-0.4-0.8-0.4C189.1-114.2,188.8-113.9,188.6-113.2z M190.8-111.6
			c-0.2,0-0.3,0-0.4,0c-1.2,0-1.8,0.5-1.8,1.4c0,0.7,0.3,1.1,0.9,1.1c0.4,0,0.7-0.2,0.9-0.6c0.3-0.4,0.4-0.9,0.4-1.6V-111.6z"/>
		<path class="st1" d="M193.8-117.5h1.4v9.3h-1.4V-117.5z"/>
		<path class="st1" d="M137.9-98.4l-1.1,0.3c-0.2-0.7-0.6-1-1.2-1c-0.3,0-0.5,0.1-0.6,0.2c-0.2,0.2-0.2,0.4-0.2,0.6
			c0,0.3,0.1,0.5,0.2,0.6c0.2,0.1,0.5,0.3,1.1,0.5c0.7,0.2,1.2,0.5,1.6,0.8c0.3,0.3,0.5,0.7,0.5,1.3c0,0.6-0.2,1.1-0.7,1.5
			c-0.5,0.4-1.1,0.6-1.8,0.6c-1.5,0-2.3-0.7-2.5-2l1.2-0.2c0.2,0.8,0.6,1.2,1.3,1.2c0.4,0,0.6-0.1,0.8-0.3c0.2-0.2,0.3-0.4,0.3-0.6
			c0-0.2-0.1-0.3-0.2-0.5c-0.1-0.2-0.5-0.3-1-0.5c-0.5-0.2-0.9-0.3-1.2-0.5s-0.5-0.4-0.7-0.6c-0.2-0.3-0.3-0.6-0.3-1
			c0-0.6,0.2-1.1,0.6-1.5c0.4-0.4,1-0.6,1.7-0.6C136.8-100.2,137.5-99.6,137.9-98.4z"/>
		<path class="st1" d="M140.6-100.9h-1.5v-1.5h1.5V-100.9z M139.2-100h1.4v6.9h-1.4V-100z"/>
		<path class="st1" d="M142.3-100h1.3v1c0.3-0.8,0.9-1.2,1.7-1.2c0.9,0,1.4,0.4,1.6,1.3c0.3-0.9,0.9-1.3,1.7-1.3
			c0.4,0,0.8,0.1,1,0.3c0.3,0.2,0.5,0.4,0.6,0.7c0.1,0.3,0.2,0.9,0.2,1.7v4.3h-1.4v-4.2c0-0.6-0.1-1.1-0.2-1.3
			c-0.1-0.2-0.3-0.3-0.7-0.3c-0.7,0-1.1,0.6-1.1,1.9v4h-1.4v-4.2c0-0.6,0-1-0.1-1.2c0-0.2-0.1-0.3-0.3-0.4c-0.1-0.1-0.3-0.1-0.5-0.1
			c-0.4,0-0.7,0.1-0.8,0.4c-0.2,0.3-0.3,0.8-0.3,1.5v4h-1.4V-100z"/>
		<path class="st1" d="M151.9-100h1.4v4.4c0,0.6,0.1,1,0.1,1.2c0.1,0.2,0.3,0.3,0.7,0.3c0.4,0,0.7-0.2,0.9-0.6c0.2-0.4,0.3-1,0.3-2
			v-3.3h1.4v6.9h-1.3v-1c-0.4,0.8-0.9,1.2-1.7,1.2c-0.4,0-0.7-0.1-1-0.3c-0.3-0.2-0.4-0.4-0.6-0.7c-0.1-0.3-0.2-0.9-0.2-1.7V-100z"
			/>
		<path class="st1" d="M158.4-102.4h1.4v9.3h-1.4V-102.4z"/>
		<path class="st1" d="M162.8-98.1l-1.4-0.2c0.1-0.6,0.4-1.1,0.8-1.4c0.5-0.3,1.1-0.5,1.7-0.5c0.6,0,1.1,0.1,1.5,0.4
			c0.4,0.2,0.6,0.5,0.7,0.9c0.1,0.3,0.1,0.9,0.1,1.5v2.3c0,0.9,0,1.6,0.1,1.9h-1.3c-0.1-0.2-0.1-0.6-0.1-1.1
			c-0.4,0.9-1.1,1.3-1.9,1.3c-0.6,0-1-0.2-1.4-0.5c-0.4-0.4-0.5-0.8-0.5-1.5c0-0.7,0.3-1.3,0.8-1.8c0.5-0.4,1.4-0.7,2.7-0.7
			c0.1,0,0.2,0,0.3,0v-0.3c0-0.5-0.1-0.9-0.2-1.1c-0.1-0.2-0.4-0.4-0.8-0.4C163.3-99.1,162.9-98.8,162.8-98.1z M164.9-96.5
			c-0.2,0-0.3,0-0.4,0c-1.2,0-1.8,0.5-1.8,1.4c0,0.7,0.3,1.1,0.9,1.1c0.4,0,0.7-0.2,0.9-0.6c0.3-0.4,0.4-0.9,0.4-1.6V-96.5z"/>
		<path class="st1" d="M168.1-101.8l1.3-0.1v1.9h1.3v1.1h-1.3v3c0,0.5,0,0.9,0,1.1c0,0.2,0.1,0.3,0.2,0.4c0.1,0.1,0.4,0.2,0.7,0.2
			c0.2,0,0.4,0,0.6,0v1.1c-0.4,0.1-0.7,0.1-1.1,0.1c-0.5,0-0.9-0.1-1.2-0.3c-0.3-0.2-0.5-0.5-0.5-0.8c-0.1-0.4-0.1-0.9-0.1-1.6v-3.1
			h-0.9v-1.1h0.9L168.1-101.8z"/>
		<path class="st1" d="M176.8-96.7c0,2.4-0.9,3.7-2.7,3.7c-0.8,0-1.5-0.3-2-0.9c-0.5-0.6-0.7-1.5-0.7-2.7c0-2.4,0.9-3.6,2.7-3.6
			c0.8,0,1.5,0.3,2,0.9C176.6-98.7,176.8-97.8,176.8-96.7z M175.3-96.6c0-1-0.1-1.6-0.3-2c-0.2-0.4-0.5-0.5-0.9-0.5
			c-0.8,0-1.2,0.8-1.2,2.5c0,0.9,0.1,1.5,0.3,1.9c0.2,0.4,0.5,0.6,0.9,0.6c0.4,0,0.7-0.2,0.9-0.6C175.2-95.1,175.3-95.7,175.3-96.6z
			"/>
		<path class="st1" d="M178.2-100h1.2v1.5c0.4-1.1,1-1.7,1.7-1.7c0.1,0,0.2,0,0.3,0v1.5c-0.1,0-0.2,0-0.3,0c-1,0-1.5,0.7-1.5,2v3.5
			h-1.4V-100z"/>
		<path class="st1" d="M186.5-98.4l-1.1,0.3c-0.2-0.7-0.6-1-1.2-1c-0.3,0-0.5,0.1-0.6,0.2c-0.2,0.2-0.2,0.4-0.2,0.6
			c0,0.3,0.1,0.5,0.2,0.6c0.2,0.1,0.5,0.3,1.1,0.5c0.7,0.2,1.2,0.5,1.6,0.8c0.3,0.3,0.5,0.7,0.5,1.3c0,0.6-0.2,1.1-0.7,1.5
			c-0.5,0.4-1.1,0.6-1.8,0.6c-1.5,0-2.3-0.7-2.5-2l1.2-0.2c0.2,0.8,0.6,1.2,1.3,1.2c0.4,0,0.6-0.1,0.8-0.3c0.2-0.2,0.3-0.4,0.3-0.6
			c0-0.2-0.1-0.3-0.2-0.5c-0.1-0.2-0.5-0.3-1-0.5c-0.5-0.2-0.9-0.3-1.2-0.5c-0.3-0.1-0.5-0.4-0.7-0.6c-0.2-0.3-0.3-0.6-0.3-1
			c0-0.6,0.2-1.1,0.6-1.5c0.4-0.4,1-0.6,1.7-0.6C185.4-100.2,186.1-99.6,186.5-98.4z"/>
	</g>
</g>
<rect x="244.2" y="-244.8" class="st0" width="309" height="520"/>
<g>
	<polygon class="st2" points="270,-91 296.4,-130 323.2,-91 296.4,-118.7 	"/>
	<polygon class="st2" points="276.6,-91 296.4,-112.1 316,-91 	"/>
	<g>
		<path class="st2" d="M331-130h9.5l7.7,27.9l7.9-27.9h9.1v38.7h-6v-33l-9.2,33h-4.7l-9-33v33H331V-130z"/>
		<path class="st2" d="M372.7-130h9.6c3.1,0,5.5,0.3,7.5,0.9c1.9,0.6,3.5,1.9,4.8,3.8c1.3,2,2,4.3,2,7.1c0,2.5-0.5,4.7-1.6,6.6
			c-1.1,1.8-2.5,3.2-4.3,4c-1.8,0.8-4.5,1.2-8.2,1.2h-3.3v15.1h-6.4V-130z M379.1-125v13.5h3.2c2.8,0,4.8-0.5,5.9-1.6
			c1.1-1.1,1.6-2.8,1.6-5.2c0-1.8-0.4-3.2-1.1-4.3c-0.7-1.1-1.5-1.8-2.4-2c-0.9-0.3-2.2-0.4-4.1-0.4H379.1z"/>
		<path class="st2" d="M424.4-121.4l-5.5,1.9c-0.6-2-1.5-3.6-2.5-4.5c-1-1-2.5-1.5-4.3-1.5c-1.7,0-3,0.5-3.9,1.5
			c-0.9,1-1.4,2.1-1.4,3.4c0,1.4,0.5,2.6,1.5,3.4c1,0.8,3.1,1.9,6.2,3c2.6,1,4.6,2,6.1,2.9c1.4,0.9,2.6,2.1,3.4,3.6
			c0.9,1.5,1.3,3.3,1.3,5.3c0,3.2-1.1,6-3.4,8.3c-2.3,2.3-5.5,3.4-9.6,3.4c-7.1,0-11.6-3.6-13.3-10.8l5.7-1.6c1,4.8,3.6,7.1,7.8,7.1
			c2.1,0,3.6-0.5,4.7-1.6c1.1-1.1,1.6-2.4,1.6-4c0-1.2-0.4-2.2-1.1-3.2c-0.7-1-2.6-2-5.5-3.1c-3.1-1.2-5.3-2.2-6.7-3
			c-1.4-0.8-2.5-2-3.5-3.6c-1-1.6-1.4-3.4-1.4-5.4c0-3.1,1.1-5.7,3.2-7.8c2.1-2.1,5-3.1,8.5-3.1
			C418.6-130.7,422.6-127.6,424.4-121.4z"/>
	</g>
	<g>
		<path class="st2" d="M432.7-128.2h1.3v1c0.3-0.8,0.9-1.2,1.7-1.2c0.9,0,1.4,0.4,1.6,1.3c0.3-0.9,0.9-1.3,1.7-1.3
			c0.4,0,0.8,0.1,1,0.3c0.3,0.2,0.5,0.4,0.6,0.7c0.1,0.3,0.2,0.9,0.2,1.7v4.3h-1.4v-4.2c0-0.6-0.1-1.1-0.2-1.3
			c-0.1-0.2-0.3-0.3-0.7-0.3c-0.7,0-1.1,0.6-1.1,1.9v4h-1.4v-4.2c0-0.6,0-1-0.1-1.2c0-0.2-0.1-0.3-0.3-0.4c-0.1-0.1-0.3-0.1-0.5-0.1
			c-0.4,0-0.7,0.1-0.8,0.4c-0.2,0.3-0.3,0.8-0.3,1.5v4h-1.4V-128.2z"/>
		<path class="st2" d="M447.5-124.8c0,2.4-0.9,3.7-2.7,3.7c-0.8,0-1.5-0.3-2-0.9c-0.5-0.6-0.7-1.5-0.7-2.7c0-2.4,0.9-3.6,2.7-3.6
			c0.8,0,1.5,0.3,2,0.9C447.3-126.9,447.5-126,447.5-124.8z M446-124.8c0-1-0.1-1.6-0.3-2c-0.2-0.4-0.5-0.5-0.9-0.5
			c-0.8,0-1.2,0.8-1.2,2.5c0,0.9,0.1,1.5,0.3,1.9c0.2,0.4,0.5,0.6,0.9,0.6c0.4,0,0.7-0.2,0.9-0.6C445.9-123.3,446-123.9,446-124.8z"
			/>
		<path class="st2" d="M452.4-130.6h1.4v9.3h-1.3v-1c-0.3,0.8-0.9,1.2-1.7,1.2c-0.8,0-1.4-0.3-1.7-1c-0.4-0.6-0.6-1.5-0.6-2.5
			c0-1.1,0.2-2,0.6-2.6c0.4-0.6,1-0.9,1.7-0.9c0.7,0,1.3,0.3,1.6,0.9V-130.6z M452.4-125.4c0-0.7-0.1-1.2-0.4-1.5
			c-0.3-0.3-0.5-0.4-0.8-0.4c-0.8,0-1.2,0.8-1.2,2.4c0,1.7,0.4,2.6,1.2,2.6c0.3,0,0.6-0.1,0.8-0.4c0.3-0.3,0.4-0.8,0.4-1.5V-125.4z"
			/>
		<path class="st2" d="M460.5-124.5h-3.9c0,0.9,0.1,1.5,0.4,1.9c0.3,0.3,0.6,0.5,0.9,0.5c0.6,0,1-0.4,1.2-1.3l1.3,0.2
			c-0.3,1.5-1.2,2.2-2.5,2.2c-0.8,0-1.5-0.3-2-0.9c-0.5-0.6-0.7-1.5-0.7-2.6c0-1.2,0.2-2.1,0.7-2.7c0.5-0.6,1.2-1,2-1
			c0.6,0,1.1,0.2,1.5,0.5c0.4,0.3,0.7,0.7,0.8,1.3C460.4-126.1,460.5-125.4,460.5-124.5z M459-125.5c0-1.2-0.4-1.8-1.2-1.8
			c-0.7,0-1.1,0.6-1.2,1.8H459z"/>
		<path class="st2" d="M461.7-128.2h1.2v1.5c0.4-1.1,1-1.7,1.7-1.7c0.1,0,0.2,0,0.3,0v1.5c-0.1,0-0.2,0-0.3,0c-1,0-1.5,0.7-1.5,2
			v3.5h-1.4V-128.2z"/>
		<path class="st2" d="M465.5-128.2h1.3v1.1c0.3-0.8,0.9-1.2,1.7-1.2c0.5,0,0.8,0.1,1.1,0.3c0.3,0.2,0.5,0.5,0.5,0.8
			c0.1,0.3,0.1,0.8,0.1,1.5v4.4h-1.4v-4.3c0-0.6-0.1-1-0.2-1.2c-0.1-0.2-0.3-0.3-0.7-0.3c-0.4,0-0.6,0.1-0.8,0.4
			c-0.2,0.3-0.3,0.8-0.3,1.6v3.8h-1.4V-128.2z"/>
		<path class="st2" d="M432.7-113.1h1.3v1.1c0.4-0.8,0.9-1.2,1.7-1.2c0.7,0,1.3,0.3,1.7,0.9c0.4,0.6,0.6,1.5,0.6,2.6
			c0,1-0.2,1.9-0.6,2.6c-0.4,0.7-1,1.1-1.8,1.1c-0.7,0-1.2-0.3-1.5-0.8v3h-1.4V-113.1z M434.1-109.1c0,0.4,0,0.8,0.1,1
			c0.1,0.2,0.2,0.5,0.4,0.6c0.2,0.2,0.4,0.3,0.7,0.3c0.8,0,1.2-0.8,1.2-2.5c0-1.6-0.4-2.5-1.2-2.5c-0.3,0-0.6,0.2-0.9,0.5
			c-0.2,0.3-0.3,0.8-0.3,1.4V-109.1z"/>
		<path class="st2" d="M439.4-113.1h1.2v1.5c0.4-1.1,1-1.7,1.7-1.7c0.1,0,0.2,0,0.3,0v1.5c-0.1,0-0.2,0-0.3,0c-1,0-1.5,0.7-1.5,2
			v3.5h-1.4V-113.1z"/>
		<path class="st2" d="M448.4-109.7c0,2.4-0.9,3.7-2.7,3.7c-0.8,0-1.5-0.3-2-0.9c-0.5-0.6-0.7-1.5-0.7-2.7c0-2.4,0.9-3.6,2.7-3.6
			c0.8,0,1.5,0.3,2,0.9C448.2-111.8,448.4-110.9,448.4-109.7z M446.9-109.7c0-1-0.1-1.6-0.3-2c-0.2-0.4-0.5-0.5-0.9-0.5
			c-0.8,0-1.2,0.8-1.2,2.5c0,0.9,0.1,1.5,0.3,1.9c0.2,0.4,0.5,0.6,0.9,0.6c0.4,0,0.7-0.2,0.9-0.6
			C446.8-108.2,446.9-108.8,446.9-109.7z"/>
		<path class="st2" d="M451.4-113.1h1.2v1.1h-1.2v5.7H450v-5.7h-0.9v-1.1h0.9c0-0.8,0.1-1.4,0.2-1.7c0.1-0.3,0.3-0.6,0.6-0.7
			c0.3-0.2,0.7-0.3,1.2-0.3c0.3,0,0.6,0,0.8,0.1v1.1c-0.2,0-0.4,0-0.5,0c-0.3,0-0.5,0.1-0.6,0.2c-0.1,0.1-0.2,0.2-0.2,0.4
			C451.4-113.9,451.4-113.6,451.4-113.1z"/>
		<path class="st2" d="M458.4-109.5h-3.9c0,0.9,0.1,1.5,0.4,1.9c0.3,0.3,0.6,0.5,0.9,0.5c0.6,0,1-0.4,1.2-1.3l1.3,0.2
			c-0.3,1.5-1.2,2.2-2.5,2.2c-0.8,0-1.5-0.3-2-0.9c-0.5-0.6-0.7-1.5-0.7-2.6c0-1.2,0.2-2.1,0.7-2.7c0.5-0.6,1.2-1,2-1
			c0.6,0,1.1,0.2,1.5,0.5c0.4,0.3,0.7,0.7,0.8,1.3C458.3-111,458.3-110.3,458.4-109.5z M456.9-110.4c0-1.2-0.4-1.8-1.2-1.8
			c-0.7,0-1.1,0.6-1.2,1.8H456.9z"/>
		<path class="st2" d="M463.7-111.5l-1.1,0.3c-0.2-0.7-0.6-1-1.2-1c-0.3,0-0.5,0.1-0.6,0.2c-0.2,0.2-0.2,0.4-0.2,0.6
			c0,0.3,0.1,0.5,0.2,0.6c0.2,0.1,0.5,0.3,1.1,0.5c0.7,0.2,1.2,0.5,1.6,0.8c0.3,0.3,0.5,0.7,0.5,1.3c0,0.6-0.2,1.1-0.7,1.5
			c-0.5,0.4-1.1,0.6-1.8,0.6c-1.5,0-2.3-0.7-2.5-2l1.2-0.2c0.2,0.8,0.6,1.2,1.3,1.2c0.4,0,0.6-0.1,0.8-0.3c0.2-0.2,0.3-0.4,0.3-0.6
			c0-0.2-0.1-0.3-0.2-0.5c-0.1-0.2-0.5-0.3-1-0.5c-0.5-0.2-0.9-0.3-1.2-0.5c-0.3-0.1-0.5-0.4-0.7-0.6c-0.2-0.3-0.3-0.6-0.3-1
			c0-0.6,0.2-1.1,0.6-1.5c0.4-0.4,1-0.6,1.7-0.6C462.6-113.3,463.3-112.7,463.7-111.5z"/>
		<path class="st2" d="M469.1-111.5l-1.1,0.3c-0.2-0.7-0.6-1-1.2-1c-0.3,0-0.5,0.1-0.6,0.2c-0.2,0.2-0.2,0.4-0.2,0.6
			c0,0.3,0.1,0.5,0.2,0.6c0.2,0.1,0.5,0.3,1.1,0.5c0.7,0.2,1.2,0.5,1.6,0.8c0.3,0.3,0.5,0.7,0.5,1.3c0,0.6-0.2,1.1-0.7,1.5
			c-0.5,0.4-1.1,0.6-1.8,0.6c-1.5,0-2.3-0.7-2.5-2l1.2-0.2c0.2,0.8,0.6,1.2,1.3,1.2c0.4,0,0.6-0.1,0.8-0.3c0.2-0.2,0.3-0.4,0.3-0.6
			c0-0.2-0.1-0.3-0.2-0.5c-0.1-0.2-0.5-0.3-1-0.5c-0.5-0.2-0.9-0.3-1.2-0.5c-0.3-0.1-0.5-0.4-0.7-0.6c-0.2-0.3-0.3-0.6-0.3-1
			c0-0.6,0.2-1.1,0.6-1.5c0.4-0.4,1-0.6,1.7-0.6C468.1-113.3,468.8-112.7,469.1-111.5z"/>
		<path class="st2" d="M471.9-114h-1.5v-1.5h1.5V-114z M470.5-113.1h1.4v6.9h-1.4V-113.1z"/>
		<path class="st2" d="M478.6-109.7c0,2.4-0.9,3.7-2.7,3.7c-0.8,0-1.5-0.3-2-0.9c-0.5-0.6-0.7-1.5-0.7-2.7c0-2.4,0.9-3.6,2.7-3.6
			c0.8,0,1.5,0.3,2,0.9C478.4-111.8,478.6-110.9,478.6-109.7z M477.1-109.7c0-1-0.1-1.6-0.3-2c-0.2-0.4-0.5-0.5-0.9-0.5
			c-0.8,0-1.2,0.8-1.2,2.5c0,0.9,0.1,1.5,0.3,1.9c0.2,0.4,0.5,0.6,0.9,0.6c0.4,0,0.7-0.2,0.9-0.6C477-108.2,477.1-108.8,477.1-109.7
			z"/>
		<path class="st2" d="M480-113.1h1.3v1.1c0.3-0.8,0.9-1.2,1.7-1.2c0.5,0,0.8,0.1,1.1,0.3c0.3,0.2,0.5,0.5,0.5,0.8
			c0.1,0.3,0.1,0.8,0.1,1.5v4.4h-1.4v-4.3c0-0.6-0.1-1-0.2-1.2c-0.1-0.2-0.3-0.3-0.7-0.3c-0.4,0-0.6,0.1-0.8,0.4
			c-0.2,0.3-0.3,0.8-0.3,1.6v3.8H480V-113.1z"/>
		<path class="st2" d="M487.6-111.2l-1.4-0.2c0.1-0.6,0.4-1.1,0.8-1.4c0.5-0.3,1.1-0.5,1.7-0.5c0.6,0,1.1,0.1,1.5,0.4
			c0.4,0.2,0.6,0.5,0.7,0.9c0.1,0.3,0.1,0.9,0.1,1.5v2.3c0,0.9,0,1.6,0.1,1.9H490c-0.1-0.2-0.1-0.6-0.1-1.1
			c-0.4,0.9-1.1,1.3-1.9,1.3c-0.6,0-1-0.2-1.4-0.5c-0.3-0.4-0.5-0.8-0.5-1.5c0-0.7,0.3-1.3,0.8-1.8c0.5-0.4,1.4-0.7,2.7-0.7
			c0.1,0,0.2,0,0.3,0v-0.3c0-0.5-0.1-0.9-0.2-1.1c-0.1-0.2-0.4-0.4-0.8-0.4C488.1-112.2,487.8-111.9,487.6-111.2z M489.8-109.6
			c-0.2,0-0.3,0-0.4,0c-1.2,0-1.8,0.5-1.8,1.4c0,0.7,0.3,1.1,0.9,1.1c0.4,0,0.7-0.2,0.9-0.6c0.3-0.4,0.4-0.9,0.4-1.6V-109.6z"/>
		<path class="st2" d="M492.8-115.5h1.4v9.3h-1.4V-115.5z"/>
		<path class="st2" d="M436.9-96.4l-1.1,0.3c-0.2-0.7-0.6-1-1.2-1c-0.3,0-0.5,0.1-0.6,0.2c-0.2,0.2-0.2,0.4-0.2,0.6
			c0,0.3,0.1,0.5,0.2,0.6c0.2,0.1,0.5,0.3,1.1,0.5c0.7,0.2,1.2,0.5,1.6,0.8c0.3,0.3,0.5,0.7,0.5,1.3c0,0.6-0.2,1.1-0.7,1.5
			c-0.5,0.4-1.1,0.6-1.8,0.6c-1.5,0-2.3-0.7-2.5-2l1.2-0.2c0.2,0.8,0.6,1.2,1.3,1.2c0.4,0,0.6-0.1,0.8-0.3c0.2-0.2,0.3-0.4,0.3-0.6
			c0-0.2-0.1-0.3-0.2-0.5c-0.1-0.2-0.5-0.3-1-0.5c-0.5-0.2-0.9-0.3-1.2-0.5c-0.3-0.1-0.5-0.4-0.7-0.6c-0.2-0.3-0.3-0.6-0.3-1
			c0-0.6,0.2-1.1,0.6-1.5c0.4-0.4,1-0.6,1.7-0.6C435.8-98.2,436.5-97.6,436.9-96.4z"/>
		<path class="st2" d="M439.6-98.9h-1.5v-1.5h1.5V-98.9z M438.2-98h1.4v6.9h-1.4V-98z"/>
		<path class="st2" d="M441.3-98h1.3v1c0.3-0.8,0.9-1.2,1.7-1.2c0.9,0,1.4,0.4,1.6,1.3c0.3-0.9,0.9-1.3,1.7-1.3c0.4,0,0.8,0.1,1,0.3
			c0.3,0.2,0.5,0.4,0.6,0.7c0.1,0.3,0.2,0.9,0.2,1.7v4.3h-1.4v-4.2c0-0.6-0.1-1.1-0.2-1.3c-0.1-0.2-0.3-0.3-0.7-0.3
			c-0.7,0-1.1,0.6-1.1,1.9v4h-1.4v-4.2c0-0.6,0-1-0.1-1.2c0-0.2-0.1-0.3-0.3-0.4c-0.1-0.1-0.3-0.1-0.5-0.1c-0.4,0-0.7,0.1-0.8,0.4
			c-0.2,0.3-0.3,0.8-0.3,1.5v4h-1.4V-98z"/>
		<path class="st2" d="M450.9-98h1.4v4.4c0,0.6,0,1,0.1,1.2c0.1,0.2,0.3,0.3,0.7,0.3c0.4,0,0.7-0.2,0.9-0.6c0.2-0.4,0.3-1,0.3-2V-98
			h1.4v6.9h-1.3v-1c-0.4,0.8-0.9,1.2-1.7,1.2c-0.4,0-0.7-0.1-1-0.3c-0.3-0.2-0.4-0.4-0.6-0.7c-0.1-0.3-0.2-0.9-0.2-1.7V-98z"/>
		<path class="st2" d="M457.4-100.4h1.4v9.3h-1.4V-100.4z"/>
		<path class="st2" d="M461.8-96.1l-1.4-0.2c0.1-0.6,0.4-1.1,0.8-1.4c0.5-0.3,1.1-0.5,1.7-0.5c0.6,0,1.1,0.1,1.5,0.4
			c0.4,0.2,0.6,0.5,0.7,0.9c0.1,0.3,0.1,0.9,0.1,1.5v2.3c0,0.9,0,1.6,0.1,1.9h-1.3c-0.1-0.2-0.1-0.6-0.1-1.1
			c-0.4,0.9-1.1,1.3-1.9,1.3c-0.6,0-1-0.2-1.4-0.5c-0.4-0.4-0.5-0.8-0.5-1.5c0-0.7,0.3-1.3,0.8-1.8c0.5-0.4,1.4-0.7,2.7-0.7
			c0.1,0,0.2,0,0.3,0v-0.3c0-0.5-0.1-0.9-0.2-1.1c-0.1-0.2-0.4-0.4-0.8-0.4C462.3-97.1,461.9-96.8,461.8-96.1z M463.9-94.5
			c-0.2,0-0.3,0-0.4,0c-1.2,0-1.8,0.5-1.8,1.4c0,0.7,0.3,1.1,0.9,1.1c0.4,0,0.7-0.2,0.9-0.6c0.3-0.4,0.4-0.9,0.4-1.6V-94.5z"/>
		<path class="st2" d="M467.1-99.8l1.3-0.1v1.9h1.3v1.1h-1.3v3c0,0.5,0,0.9,0,1.1c0,0.2,0.1,0.3,0.2,0.4c0.1,0.1,0.4,0.2,0.7,0.2
			c0.2,0,0.4,0,0.6,0v1.1c-0.4,0.1-0.7,0.1-1.1,0.1c-0.5,0-0.9-0.1-1.2-0.3c-0.3-0.2-0.5-0.5-0.5-0.8c-0.1-0.4-0.1-0.9-0.1-1.6v-3.1
			h-0.9V-98h0.9L467.1-99.8z"/>
		<path class="st2" d="M475.8-94.7c0,2.4-0.9,3.7-2.7,3.7c-0.8,0-1.5-0.3-2-0.9c-0.5-0.6-0.7-1.5-0.7-2.7c0-2.4,0.9-3.6,2.7-3.6
			c0.8,0,1.5,0.3,2,0.9C475.6-96.7,475.8-95.8,475.8-94.7z M474.3-94.6c0-1-0.1-1.6-0.3-2c-0.2-0.4-0.5-0.5-0.9-0.5
			c-0.8,0-1.2,0.8-1.2,2.5c0,0.9,0.1,1.5,0.3,1.9c0.2,0.4,0.5,0.6,0.9,0.6c0.4,0,0.7-0.2,0.9-0.6C474.2-93.1,474.3-93.7,474.3-94.6z
			"/>
		<path class="st2" d="M477.2-98h1.2v1.5c0.4-1.1,1-1.7,1.7-1.7c0.1,0,0.2,0,0.3,0v1.5c-0.1,0-0.2,0-0.3,0c-1,0-1.5,0.7-1.5,2v3.5
			h-1.4V-98z"/>
		<path class="st2" d="M485.5-96.4l-1.1,0.3c-0.2-0.7-0.6-1-1.2-1c-0.3,0-0.5,0.1-0.6,0.2c-0.2,0.2-0.2,0.4-0.2,0.6
			c0,0.3,0.1,0.5,0.2,0.6c0.2,0.1,0.5,0.3,1.1,0.5c0.7,0.2,1.2,0.5,1.6,0.8c0.3,0.3,0.5,0.7,0.5,1.3c0,0.6-0.2,1.1-0.7,1.5
			c-0.5,0.4-1.1,0.6-1.8,0.6c-1.5,0-2.3-0.7-2.5-2l1.2-0.2c0.2,0.8,0.6,1.2,1.3,1.2c0.4,0,0.6-0.1,0.8-0.3c0.2-0.2,0.3-0.4,0.3-0.6
			c0-0.2-0.1-0.3-0.2-0.5c-0.1-0.2-0.5-0.3-1-0.5c-0.5-0.2-0.9-0.3-1.2-0.5c-0.3-0.1-0.5-0.4-0.7-0.6c-0.2-0.3-0.3-0.6-0.3-1
			c0-0.6,0.2-1.1,0.6-1.5c0.4-0.4,1-0.6,1.7-0.6C484.4-98.2,485.1-97.6,485.5-96.4z"/>
	</g>
</g>
<g>
	<polygon class="st0" points="0,39 26.4,0 53.2,39 26.4,11.3 	"/>
	<polygon class="st0" points="6.6,39 26.4,17.9 46,39 	"/>
	<g>
		<path d="M61,0h9.5l7.7,27.9L86.1,0h9.1v38.7h-6v-33l-9.2,33h-4.7l-9-33v33H61V0z"/>
		<path d="M102.7,0h9.6c3.1,0,5.5,0.3,7.5,0.9c1.9,0.6,3.5,1.9,4.8,3.8c1.3,2,2,4.3,2,7.1c0,2.5-0.5,4.7-1.6,6.6
			c-1.1,1.8-2.5,3.2-4.3,4c-1.8,0.8-4.5,1.2-8.2,1.2h-3.3v15.1h-6.4V0z M109.1,5v13.5h3.2c2.8,0,4.8-0.5,5.9-1.6
			c1.1-1.1,1.6-2.8,1.6-5.2c0-1.8-0.4-3.2-1.1-4.3c-0.7-1.1-1.5-1.8-2.4-2c-0.9-0.3-2.2-0.4-4.1-0.4H109.1z"/>
		<path d="M154.4,8.6l-5.5,1.9c-0.6-2-1.5-3.6-2.5-4.5c-1-1-2.5-1.5-4.3-1.5c-1.7,0-3,0.5-3.9,1.5c-0.9,1-1.4,2.1-1.4,3.4
			c0,1.4,0.5,2.6,1.5,3.4c1,0.8,3.1,1.9,6.2,3c2.6,1,4.6,2,6.1,2.9c1.4,0.9,2.6,2.1,3.4,3.6c0.9,1.5,1.3,3.3,1.3,5.3
			c0,3.2-1.1,6-3.4,8.3c-2.3,2.3-5.5,3.4-9.6,3.4c-7.1,0-11.6-3.6-13.3-10.8l5.7-1.6c1,4.8,3.6,7.1,7.8,7.1c2.1,0,3.6-0.5,4.7-1.6
			c1.1-1.1,1.6-2.4,1.6-4c0-1.2-0.4-2.2-1.1-3.2c-0.7-1-2.6-2-5.5-3.1c-3.1-1.2-5.3-2.2-6.7-3c-1.4-0.8-2.5-2-3.5-3.6
			c-1-1.6-1.4-3.4-1.4-5.4c0-3.1,1.1-5.7,3.2-7.8c2.1-2.1,5-3.1,8.5-3.1C148.6-0.7,152.6,2.4,154.4,8.6z"/>
	</g>
</g>
<g>
	<polygon class="st2" points="310,39 336.4,0 363.2,39 336.4,11.3 	"/>
	<polygon class="st2" points="316.6,39 336.4,17.9 356,39 	"/>
	<g>
		<path class="st2" d="M371,0h9.5l7.7,27.9L396.1,0h9.1v38.7h-6v-33l-9.2,33h-4.7l-9-33v33H371V0z"/>
		<path class="st2" d="M412.7,0h9.6c3.1,0,5.5,0.3,7.5,0.9c1.9,0.6,3.5,1.9,4.8,3.8c1.3,2,2,4.3,2,7.1c0,2.5-0.5,4.7-1.6,6.6
			c-1.1,1.8-2.5,3.2-4.3,4c-1.8,0.8-4.5,1.2-8.2,1.2h-3.3v15.1h-6.4V0z M419.1,5v13.5h3.2c2.8,0,4.8-0.5,5.9-1.6
			c1.1-1.1,1.6-2.8,1.6-5.2c0-1.8-0.4-3.2-1.1-4.3c-0.7-1.1-1.5-1.8-2.4-2c-0.9-0.3-2.2-0.4-4.1-0.4H419.1z"/>
		<path class="st2" d="M464.4,8.6l-5.5,1.9c-0.6-2-1.5-3.6-2.5-4.5c-1-1-2.5-1.5-4.3-1.5c-1.7,0-3,0.5-3.9,1.5
			c-0.9,1-1.4,2.1-1.4,3.4c0,1.4,0.5,2.6,1.5,3.4c1,0.8,3.1,1.9,6.2,3c2.6,1,4.6,2,6.1,2.9c1.4,0.9,2.6,2.1,3.4,3.6
			c0.9,1.5,1.3,3.3,1.3,5.3c0,3.2-1.1,6-3.4,8.3c-2.3,2.3-5.5,3.4-9.6,3.4c-7.1,0-11.6-3.6-13.3-10.8l5.7-1.6c1,4.8,3.6,7.1,7.8,7.1
			c2.1,0,3.6-0.5,4.7-1.6c1.1-1.1,1.6-2.4,1.6-4c0-1.2-0.4-2.2-1.1-3.2c-0.7-1-2.6-2-5.5-3.1c-3.1-1.2-5.3-2.2-6.7-3
			c-1.4-0.8-2.5-2-3.5-3.6c-1-1.6-1.4-3.4-1.4-5.4c0-3.1,1.1-5.7,3.2-7.8c2.1-2.1,5-3.1,8.5-3.1C458.6-0.7,462.6,2.4,464.4,8.6z"/>
	</g>
</g>
<g>
	<polygon class="st0" points="69,169 95.4,130 122.2,169 95.4,141.3 	"/>
	<polygon class="st0" points="75.6,169 95.4,147.9 115,169 	"/>
</g>
<g>
	<polygon class="st2" points="359,169 385.4,130 412.2,169 385.4,141.3 	"/>
	<polygon class="st2" points="365.6,169 385.4,147.9 405,169 	"/>
</g>
<rect x="-13.8" y="-189.8" style="fill:none;" width="265" height="28"/>
<text transform="matrix(1 0 0 1 -13.7637 -181.3028)" style="font-family:'MyriadPro-Regular'; font-size:12px;">синий цвет - Pantone Solid Coated 281C</text>
</svg>
