<?xml version="1.0" encoding="utf-8"?>
<!-- Generator: Adobe Illustrator 21.1.0, SVG Export Plug-In . SVG Version: 6.00 Build 0)  -->
<svg version="1.1" id="Layer_1" xmlns="http://www.w3.org/2000/svg" xmlns:xlink="http://www.w3.org/1999/xlink" x="0px" y="0px"
	 viewBox="0 0 155.4 39.4" style="enable-background:new 0 0 155.4 39.4;" xml:space="preserve">
<style type="text/css">
	.st0{fill:#1C3F7B;}
	.st1{fill:#58595B;}
	.st2{fill:none;stroke:#1C3F7B;stroke-miterlimit:10;}
	.st3{fill:#FFFFFF;}
	.st4{fill:#4C8CF5;}
	.st5{fill:none;}
</style>
<g>
	<polygon class="st0" points="-339,-93 -312.6,-132 -285.8,-93 -312.6,-120.7 	"/>
	<polygon class="st0" points="-332.4,-93 -312.6,-114.1 -293,-93 	"/>
	<g>
		<path d="M-278-132h9.5l7.7,27.9l7.9-27.9h9.1v38.7h-6v-33l-9.2,33h-4.7l-9-33v33h-5.3V-132z"/>
		<path d="M-236.3-132h9.6c3.1,0,5.5,0.3,7.5,0.9c1.9,0.6,3.5,1.9,4.8,3.8c1.3,2,2,4.3,2,7.1c0,2.5-0.5,4.7-1.6,6.6
			c-1.1,1.8-2.5,3.2-4.3,4s-4.5,1.2-8.2,1.2h-3.3v15.1h-6.4L-236.3-132L-236.3-132z M-229.9-127v13.5h3.2c2.8,0,4.8-0.5,5.9-1.6
			s1.6-2.8,1.6-5.2c0-1.8-0.4-3.2-1.1-4.3c-0.7-1.1-1.5-1.8-2.4-2c-0.9-0.3-2.2-0.4-4.1-0.4H-229.9z"/>
		<path d="M-184.6-123.4l-5.5,1.9c-0.6-2-1.5-3.6-2.5-4.5c-1-1-2.5-1.5-4.3-1.5c-1.7,0-3,0.5-3.9,1.5s-1.4,2.1-1.4,3.4
			c0,1.4,0.5,2.6,1.5,3.4s3.1,1.9,6.2,3c2.6,1,4.6,2,6.1,2.9c1.4,0.9,2.6,2.1,3.4,3.6c0.9,1.5,1.3,3.3,1.3,5.3c0,3.2-1.1,6-3.4,8.3
			s-5.5,3.4-9.6,3.4c-7.1,0-11.6-3.6-13.3-10.8l5.7-1.6c1,4.8,3.6,7.1,7.8,7.1c2.1,0,3.6-0.5,4.7-1.6c1.1-1.1,1.6-2.4,1.6-4
			c0-1.2-0.4-2.2-1.1-3.2c-0.7-1-2.6-2-5.5-3.1c-3.1-1.2-5.3-2.2-6.7-3c-1.4-0.8-2.5-2-3.5-3.6s-1.4-3.4-1.4-5.4
			c0-3.1,1.1-5.7,3.2-7.8c2.1-2.1,5-3.1,8.5-3.1C-190.4-132.7-186.4-129.6-184.6-123.4z"/>
	</g>
	<g>
		<path class="st1" d="M-176.3-130.2h1.3v1c0.3-0.8,0.9-1.2,1.7-1.2c0.9,0,1.4,0.4,1.6,1.3c0.3-0.9,0.9-1.3,1.7-1.3
			c0.4,0,0.8,0.1,1,0.3c0.3,0.2,0.5,0.4,0.6,0.7s0.2,0.9,0.2,1.7v4.3h-1.4v-4.2c0-0.6-0.1-1.1-0.2-1.3c-0.1-0.2-0.3-0.3-0.7-0.3
			c-0.7,0-1.1,0.6-1.1,1.9v4h-1.4v-4.2c0-0.6,0-1-0.1-1.2c0-0.2-0.1-0.3-0.3-0.4c-0.1-0.1-0.3-0.1-0.5-0.1c-0.4,0-0.7,0.1-0.8,0.4
			c-0.2,0.3-0.3,0.8-0.3,1.5v4h-1.4L-176.3-130.2L-176.3-130.2z"/>
		<path class="st1" d="M-161.5-126.8c0,2.4-0.9,3.7-2.7,3.7c-0.8,0-1.5-0.3-2-0.9s-0.7-1.5-0.7-2.7c0-2.4,0.9-3.6,2.7-3.6
			c0.8,0,1.5,0.3,2,0.9C-161.7-128.9-161.5-128-161.5-126.8z M-163-126.8c0-1-0.1-1.6-0.3-2s-0.5-0.5-0.9-0.5
			c-0.8,0-1.2,0.8-1.2,2.5c0,0.9,0.1,1.5,0.3,1.9s0.5,0.6,0.9,0.6s0.7-0.2,0.9-0.6S-163-125.9-163-126.8z"/>
		<path class="st1" d="M-156.6-132.6h1.4v9.3h-1.3v-1c-0.3,0.8-0.9,1.2-1.7,1.2s-1.4-0.3-1.7-1c-0.4-0.6-0.6-1.5-0.6-2.5
			c0-1.1,0.2-2,0.6-2.6c0.4-0.6,1-0.9,1.7-0.9s1.3,0.3,1.6,0.9V-132.6z M-156.6-127.4c0-0.7-0.1-1.2-0.4-1.5
			c-0.3-0.3-0.5-0.4-0.8-0.4c-0.8,0-1.2,0.8-1.2,2.4c0,1.7,0.4,2.6,1.2,2.6c0.3,0,0.6-0.1,0.8-0.4c0.3-0.3,0.4-0.8,0.4-1.5V-127.4z"
			/>
		<path class="st1" d="M-148.5-126.5h-3.9c0,0.9,0.1,1.5,0.4,1.9c0.3,0.3,0.6,0.5,0.9,0.5c0.6,0,1-0.4,1.2-1.3l1.3,0.2
			c-0.3,1.5-1.2,2.2-2.5,2.2c-0.8,0-1.5-0.3-2-0.9s-0.7-1.5-0.7-2.6c0-1.2,0.2-2.1,0.7-2.7s1.2-1,2-1c0.6,0,1.1,0.2,1.5,0.5
			s0.7,0.7,0.8,1.3C-148.6-128.1-148.5-127.4-148.5-126.5z M-150-127.5c0-1.2-0.4-1.8-1.2-1.8c-0.7,0-1.1,0.6-1.2,1.8H-150z"/>
		<path class="st1" d="M-147.3-130.2h1.2v1.5c0.4-1.1,1-1.7,1.7-1.7c0.1,0,0.2,0,0.3,0v1.5c-0.1,0-0.2,0-0.3,0c-1,0-1.5,0.7-1.5,2
			v3.5h-1.4V-130.2z"/>
		<path class="st1" d="M-143.5-130.2h1.3v1.1c0.3-0.8,0.9-1.2,1.7-1.2c0.5,0,0.8,0.1,1.1,0.3s0.5,0.5,0.5,0.8
			c0.1,0.3,0.1,0.8,0.1,1.5v4.4h-1.4v-4.3c0-0.6-0.1-1-0.2-1.2c-0.1-0.2-0.3-0.3-0.7-0.3s-0.6,0.1-0.8,0.4c-0.2,0.3-0.3,0.8-0.3,1.6
			v3.8h-1.4L-143.5-130.2L-143.5-130.2z"/>
		<path class="st1" d="M-176.3-115.1h1.3v1.1c0.4-0.8,0.9-1.2,1.7-1.2c0.7,0,1.3,0.3,1.7,0.9s0.6,1.5,0.6,2.6c0,1-0.2,1.9-0.6,2.6
			c-0.4,0.7-1,1.1-1.8,1.1c-0.7,0-1.2-0.3-1.5-0.8v3h-1.4V-115.1z M-174.9-111.1c0,0.4,0,0.8,0.1,1s0.2,0.5,0.4,0.6
			c0.2,0.2,0.4,0.3,0.7,0.3c0.8,0,1.2-0.8,1.2-2.5c0-1.6-0.4-2.5-1.2-2.5c-0.3,0-0.6,0.2-0.9,0.5c-0.2,0.3-0.3,0.8-0.3,1.4V-111.1z"
			/>
		<path class="st1" d="M-169.6-115.1h1.2v1.5c0.4-1.1,1-1.7,1.7-1.7c0.1,0,0.2,0,0.3,0v1.5c-0.1,0-0.2,0-0.3,0c-1,0-1.5,0.7-1.5,2
			v3.5h-1.4V-115.1z"/>
		<path class="st1" d="M-160.6-111.7c0,2.4-0.9,3.7-2.7,3.7c-0.8,0-1.5-0.3-2-0.9s-0.7-1.5-0.7-2.7c0-2.4,0.9-3.6,2.7-3.6
			c0.8,0,1.5,0.3,2,0.9C-160.8-113.8-160.6-112.9-160.6-111.7z M-162.1-111.7c0-1-0.1-1.6-0.3-2s-0.5-0.5-0.9-0.5
			c-0.8,0-1.2,0.8-1.2,2.5c0,0.9,0.1,1.5,0.3,1.9s0.5,0.6,0.9,0.6s0.7-0.2,0.9-0.6C-162.2-110.2-162.1-110.8-162.1-111.7z"/>
		<path class="st1" d="M-157.6-115.1h1.2v1.1h-1.2v5.7h-1.4v-5.7h-0.9v-1.1h0.9c0-0.8,0.1-1.4,0.2-1.7c0.1-0.3,0.3-0.6,0.6-0.7
			c0.3-0.2,0.7-0.3,1.2-0.3c0.3,0,0.6,0,0.8,0.1v1.1c-0.2,0-0.4,0-0.5,0c-0.3,0-0.5,0.1-0.6,0.2s-0.2,0.2-0.2,0.4
			C-157.6-115.9-157.6-115.6-157.6-115.1z"/>
		<path class="st1" d="M-150.6-111.5h-3.9c0,0.9,0.1,1.5,0.4,1.9c0.3,0.3,0.6,0.5,0.9,0.5c0.6,0,1-0.4,1.2-1.3l1.3,0.2
			c-0.3,1.5-1.2,2.2-2.5,2.2c-0.8,0-1.5-0.3-2-0.9s-0.7-1.5-0.7-2.6c0-1.2,0.2-2.1,0.7-2.7s1.2-1,2-1c0.6,0,1.1,0.2,1.5,0.5
			s0.7,0.7,0.8,1.3C-150.7-113-150.7-112.3-150.6-111.5z M-152.1-112.4c0-1.2-0.4-1.8-1.2-1.8c-0.7,0-1.1,0.6-1.2,1.8H-152.1z"/>
		<path class="st1" d="M-145.3-113.5l-1.1,0.3c-0.2-0.7-0.6-1-1.2-1c-0.3,0-0.5,0.1-0.6,0.2c-0.2,0.2-0.2,0.4-0.2,0.6
			c0,0.3,0.1,0.5,0.2,0.6c0.2,0.1,0.5,0.3,1.1,0.5c0.7,0.2,1.2,0.5,1.6,0.8c0.3,0.3,0.5,0.7,0.5,1.3c0,0.6-0.2,1.1-0.7,1.5
			s-1.1,0.6-1.8,0.6c-1.5,0-2.3-0.7-2.5-2l1.2-0.2c0.2,0.8,0.6,1.2,1.3,1.2c0.4,0,0.6-0.1,0.8-0.3c0.2-0.2,0.3-0.4,0.3-0.6
			s-0.1-0.3-0.2-0.5c-0.1-0.2-0.5-0.3-1-0.5s-0.9-0.3-1.2-0.5c-0.3-0.1-0.5-0.4-0.7-0.6c-0.2-0.3-0.3-0.6-0.3-1
			c0-0.6,0.2-1.1,0.6-1.5c0.4-0.4,1-0.6,1.7-0.6C-146.4-115.3-145.7-114.7-145.3-113.5z"/>
		<path class="st1" d="M-139.9-113.5l-1.1,0.3c-0.2-0.7-0.6-1-1.2-1c-0.3,0-0.5,0.1-0.6,0.2c-0.2,0.2-0.2,0.4-0.2,0.6
			c0,0.3,0.1,0.5,0.2,0.6c0.2,0.1,0.5,0.3,1.1,0.5c0.7,0.2,1.2,0.5,1.6,0.8c0.3,0.3,0.5,0.7,0.5,1.3c0,0.6-0.2,1.1-0.7,1.5
			s-1.1,0.6-1.8,0.6c-1.5,0-2.3-0.7-2.5-2l1.2-0.2c0.2,0.8,0.6,1.2,1.3,1.2c0.4,0,0.6-0.1,0.8-0.3c0.2-0.2,0.3-0.4,0.3-0.6
			s-0.1-0.3-0.2-0.5c-0.1-0.2-0.5-0.3-1-0.5s-0.9-0.3-1.2-0.5c-0.3-0.1-0.5-0.4-0.7-0.6c-0.2-0.3-0.3-0.6-0.3-1
			c0-0.6,0.2-1.1,0.6-1.5c0.4-0.4,1-0.6,1.7-0.6C-140.9-115.3-140.2-114.7-139.9-113.5z"/>
		<path class="st1" d="M-137.1-116h-1.5v-1.5h1.5V-116z M-138.5-115.1h1.4v6.9h-1.4V-115.1z"/>
		<path class="st1" d="M-130.4-111.7c0,2.4-0.9,3.7-2.7,3.7c-0.8,0-1.5-0.3-2-0.9s-0.7-1.5-0.7-2.7c0-2.4,0.9-3.6,2.7-3.6
			c0.8,0,1.5,0.3,2,0.9C-130.6-113.8-130.4-112.9-130.4-111.7z M-131.9-111.7c0-1-0.1-1.6-0.3-2s-0.5-0.5-0.9-0.5
			c-0.8,0-1.2,0.8-1.2,2.5c0,0.9,0.1,1.5,0.3,1.9s0.5,0.6,0.9,0.6s0.7-0.2,0.9-0.6S-131.9-110.8-131.9-111.7z"/>
		<path class="st1" d="M-129-115.1h1.3v1.1c0.3-0.8,0.9-1.2,1.7-1.2c0.5,0,0.8,0.1,1.1,0.3c0.3,0.2,0.5,0.5,0.5,0.8
			c0.1,0.3,0.1,0.8,0.1,1.5v4.4h-1.4v-4.3c0-0.6-0.1-1-0.2-1.2c-0.1-0.2-0.3-0.3-0.7-0.3s-0.6,0.1-0.8,0.4s-0.3,0.8-0.3,1.6v3.8
			h-1.3V-115.1z"/>
		<path class="st1" d="M-121.4-113.2l-1.4-0.2c0.1-0.6,0.4-1.1,0.8-1.4c0.5-0.3,1.1-0.5,1.7-0.5c0.6,0,1.1,0.1,1.5,0.4
			c0.4,0.2,0.6,0.5,0.7,0.9c0.1,0.3,0.1,0.9,0.1,1.5v2.3c0,0.9,0,1.6,0.1,1.9h-1.1c-0.1-0.2-0.1-0.6-0.1-1.1
			c-0.4,0.9-1.1,1.3-1.9,1.3c-0.6,0-1-0.2-1.4-0.5c-0.4-0.4-0.5-0.8-0.5-1.5s0.3-1.3,0.8-1.8c0.5-0.4,1.4-0.7,2.7-0.7
			c0.1,0,0.2,0,0.3,0v-0.3c0-0.5-0.1-0.9-0.2-1.1c-0.1-0.2-0.4-0.4-0.8-0.4C-120.9-114.2-121.2-113.9-121.4-113.2z M-119.2-111.6
			c-0.2,0-0.3,0-0.4,0c-1.2,0-1.8,0.5-1.8,1.4c0,0.7,0.3,1.1,0.9,1.1c0.4,0,0.7-0.2,0.9-0.6c0.3-0.4,0.4-0.9,0.4-1.6L-119.2-111.6
			L-119.2-111.6z"/>
		<path class="st1" d="M-116.2-117.5h1.4v9.3h-1.4V-117.5z"/>
		<path class="st1" d="M-172.1-98.4l-1.1,0.3c-0.2-0.7-0.6-1-1.2-1c-0.3,0-0.5,0.1-0.6,0.2c-0.2,0.2-0.2,0.4-0.2,0.6
			c0,0.3,0.1,0.5,0.2,0.6c0.2,0.1,0.5,0.3,1.1,0.5c0.7,0.2,1.2,0.5,1.6,0.8c0.3,0.3,0.5,0.7,0.5,1.3c0,0.6-0.2,1.1-0.7,1.5
			s-1.1,0.6-1.8,0.6c-1.5,0-2.3-0.7-2.5-2l1.2-0.2c0.2,0.8,0.6,1.2,1.3,1.2c0.4,0,0.6-0.1,0.8-0.3c0.2-0.2,0.3-0.4,0.3-0.6
			s-0.1-0.3-0.2-0.5c-0.1-0.2-0.5-0.3-1-0.5s-0.9-0.3-1.2-0.5s-0.5-0.4-0.7-0.6c-0.2-0.3-0.3-0.6-0.3-1c0-0.6,0.2-1.1,0.6-1.5
			c0.4-0.4,1-0.6,1.7-0.6C-173.2-100.2-172.5-99.6-172.1-98.4z"/>
		<path class="st1" d="M-169.4-100.9h-1.5v-1.5h1.5V-100.9z M-170.8-100h1.4v6.9h-1.4V-100z"/>
		<path class="st1" d="M-167.7-100h1.3v1c0.3-0.8,0.9-1.2,1.7-1.2c0.9,0,1.4,0.4,1.6,1.3c0.3-0.9,0.9-1.3,1.7-1.3
			c0.4,0,0.8,0.1,1,0.3c0.3,0.2,0.5,0.4,0.6,0.7c0.1,0.3,0.2,0.9,0.2,1.7v4.3h-1.4v-4.2c0-0.6-0.1-1.1-0.2-1.3
			c-0.1-0.2-0.3-0.3-0.7-0.3c-0.7,0-1.1,0.6-1.1,1.9v4h-1.4v-4.2c0-0.6,0-1-0.1-1.2c0-0.2-0.1-0.3-0.3-0.4c-0.1-0.1-0.3-0.1-0.5-0.1
			c-0.4,0-0.7,0.1-0.8,0.4c-0.2,0.3-0.3,0.8-0.3,1.5v4h-1.4L-167.7-100L-167.7-100z"/>
		<path class="st1" d="M-158.1-100h1.4v4.4c0,0.6,0.1,1,0.1,1.2c0.1,0.2,0.3,0.3,0.7,0.3s0.7-0.2,0.9-0.6s0.3-1,0.3-2v-3.3h1.4v6.9
			h-1.3v-1c-0.4,0.8-0.9,1.2-1.7,1.2c-0.4,0-0.7-0.1-1-0.3c-0.3-0.2-0.4-0.4-0.6-0.7c-0.1-0.3-0.2-0.9-0.2-1.7L-158.1-100
			L-158.1-100z"/>
		<path class="st1" d="M-151.6-102.4h1.4v9.3h-1.4V-102.4z"/>
		<path class="st1" d="M-147.2-98.1l-1.4-0.2c0.1-0.6,0.4-1.1,0.8-1.4c0.5-0.3,1.1-0.5,1.7-0.5c0.6,0,1.1,0.1,1.5,0.4
			c0.4,0.2,0.6,0.5,0.7,0.9c0.1,0.3,0.1,0.9,0.1,1.5v2.3c0,0.9,0,1.6,0.1,1.9h-1.3c-0.1-0.2-0.1-0.6-0.1-1.1
			c-0.4,0.9-1.1,1.3-1.9,1.3c-0.6,0-1-0.2-1.4-0.5c-0.4-0.4-0.5-0.8-0.5-1.5s0.3-1.3,0.8-1.8c0.5-0.4,1.4-0.7,2.7-0.7
			c0.1,0,0.2,0,0.3,0v-0.3c0-0.5-0.1-0.9-0.2-1.1c-0.1-0.2-0.4-0.4-0.8-0.4C-146.7-99.1-147.1-98.8-147.2-98.1z M-145.1-96.5
			c-0.2,0-0.3,0-0.4,0c-1.2,0-1.8,0.5-1.8,1.4c0,0.7,0.3,1.1,0.9,1.1c0.4,0,0.7-0.2,0.9-0.6c0.3-0.4,0.4-0.9,0.4-1.6L-145.1-96.5
			L-145.1-96.5z"/>
		<path class="st1" d="M-141.9-101.8l1.3-0.1v1.9h1.3v1.1h-1.3v3c0,0.5,0,0.9,0,1.1s0.1,0.3,0.2,0.4c0.1,0.1,0.4,0.2,0.7,0.2
			c0.2,0,0.4,0,0.6,0v1.1c-0.4,0.1-0.7,0.1-1.1,0.1c-0.5,0-0.9-0.1-1.2-0.3c-0.3-0.2-0.5-0.5-0.5-0.8c-0.1-0.4-0.1-0.9-0.1-1.6v-3.1
			h-0.9v-1.1h0.9L-141.9-101.8z"/>
		<path class="st1" d="M-133.2-96.7c0,2.4-0.9,3.7-2.7,3.7c-0.8,0-1.5-0.3-2-0.9s-0.7-1.5-0.7-2.7c0-2.4,0.9-3.6,2.7-3.6
			c0.8,0,1.5,0.3,2,0.9S-133.2-97.8-133.2-96.7z M-134.7-96.6c0-1-0.1-1.6-0.3-2s-0.5-0.5-0.9-0.5c-0.8,0-1.2,0.8-1.2,2.5
			c0,0.9,0.1,1.5,0.3,1.9s0.5,0.6,0.9,0.6s0.7-0.2,0.9-0.6S-134.7-95.7-134.7-96.6z"/>
		<path class="st1" d="M-131.8-100h1.2v1.5c0.4-1.1,1-1.7,1.7-1.7c0.1,0,0.2,0,0.3,0v1.5c-0.1,0-0.2,0-0.3,0c-1,0-1.5,0.7-1.5,2v3.5
			h-1.4V-100z"/>
		<path class="st1" d="M-123.5-98.4l-1.1,0.3c-0.2-0.7-0.6-1-1.2-1c-0.3,0-0.5,0.1-0.6,0.2c-0.2,0.2-0.2,0.4-0.2,0.6
			c0,0.3,0.1,0.5,0.2,0.6c0.2,0.1,0.5,0.3,1.1,0.5c0.7,0.2,1.2,0.5,1.6,0.8c0.3,0.3,0.5,0.7,0.5,1.3c0,0.6-0.2,1.1-0.7,1.5
			s-1.1,0.6-1.8,0.6c-1.5,0-2.3-0.7-2.5-2l1.2-0.2c0.2,0.8,0.6,1.2,1.3,1.2c0.4,0,0.6-0.1,0.8-0.3c0.2-0.2,0.3-0.4,0.3-0.6
			s-0.1-0.3-0.2-0.5c-0.1-0.2-0.5-0.3-1-0.5s-0.9-0.3-1.2-0.5c-0.3-0.1-0.5-0.4-0.7-0.6c-0.2-0.3-0.3-0.6-0.3-1
			c0-0.6,0.2-1.1,0.6-1.5c0.4-0.4,1-0.6,1.7-0.6C-124.6-100.2-123.9-99.6-123.5-98.4z"/>
	</g>
</g>
<rect x="-65.8" y="-244.8" class="st2" width="309" height="520"/>
<g>
	<polygon class="st3" points="-40,-91 -13.6,-130 13.2,-91 -13.6,-118.7 	"/>
	<polygon class="st3" points="-33.4,-91 -13.6,-112.1 6,-91 	"/>
	<g>
		<path class="st3" d="M21-130h9.5l7.7,27.9l7.9-27.9h9.1v38.7h-6v-33l-9.2,33h-4.7l-9-33v33H21V-130z"/>
		<path class="st3" d="M62.7-130h9.6c3.1,0,5.5,0.3,7.5,0.9c1.9,0.6,3.5,1.9,4.8,3.8c1.3,2,2,4.3,2,7.1c0,2.5-0.5,4.7-1.6,6.6
			c-1.1,1.8-2.5,3.2-4.3,4s-4.5,1.2-8.2,1.2h-3.3v15.1h-6.4V-130H62.7z M69.1-125v13.5h3.2c2.8,0,4.8-0.5,5.9-1.6s1.6-2.8,1.6-5.2
			c0-1.8-0.4-3.2-1.1-4.3c-0.7-1.1-1.5-1.8-2.4-2c-0.9-0.3-2.2-0.4-4.1-0.4H69.1z"/>
		<path class="st3" d="M114.4-121.4l-5.5,1.9c-0.6-2-1.5-3.6-2.5-4.5c-1-1-2.5-1.5-4.3-1.5c-1.7,0-3,0.5-3.9,1.5s-1.4,2.1-1.4,3.4
			c0,1.4,0.5,2.6,1.5,3.4s3.1,1.9,6.2,3c2.6,1,4.6,2,6.1,2.9c1.4,0.9,2.6,2.1,3.4,3.6c0.9,1.5,1.3,3.3,1.3,5.3c0,3.2-1.1,6-3.4,8.3
			s-5.5,3.4-9.6,3.4c-7.1,0-11.6-3.6-13.3-10.8l5.7-1.6c1,4.8,3.6,7.1,7.8,7.1c2.1,0,3.6-0.5,4.7-1.6s1.6-2.4,1.6-4
			c0-1.2-0.4-2.2-1.1-3.2s-2.6-2-5.5-3.1c-3.1-1.2-5.3-2.2-6.7-3c-1.4-0.8-2.5-2-3.5-3.6s-1.4-3.4-1.4-5.4c0-3.1,1.1-5.7,3.2-7.8
			c2.1-2.1,5-3.1,8.5-3.1C108.6-130.7,112.6-127.6,114.4-121.4z"/>
	</g>
	<g>
		<path class="st3" d="M122.7-128.2h1.3v1c0.3-0.8,0.9-1.2,1.7-1.2c0.9,0,1.4,0.4,1.6,1.3c0.3-0.9,0.9-1.3,1.7-1.3
			c0.4,0,0.8,0.1,1,0.3c0.3,0.2,0.5,0.4,0.6,0.7c0.1,0.3,0.2,0.9,0.2,1.7v4.3h-1.4v-4.2c0-0.6-0.1-1.1-0.2-1.3
			c-0.1-0.2-0.3-0.3-0.7-0.3c-0.7,0-1.1,0.6-1.1,1.9v4H126v-4.2c0-0.6,0-1-0.1-1.2c0-0.2-0.1-0.3-0.3-0.4c-0.1-0.1-0.3-0.1-0.5-0.1
			c-0.4,0-0.7,0.1-0.8,0.4c-0.2,0.3-0.3,0.8-0.3,1.5v4h-1.4L122.7-128.2L122.7-128.2z"/>
		<path class="st3" d="M137.5-124.8c0,2.4-0.9,3.7-2.7,3.7c-0.8,0-1.5-0.3-2-0.9s-0.7-1.5-0.7-2.7c0-2.4,0.9-3.6,2.7-3.6
			c0.8,0,1.5,0.3,2,0.9C137.3-126.9,137.5-126,137.5-124.8z M136-124.8c0-1-0.1-1.6-0.3-2c-0.2-0.4-0.5-0.5-0.9-0.5
			c-0.8,0-1.2,0.8-1.2,2.5c0,0.9,0.1,1.5,0.3,1.9c0.2,0.4,0.5,0.6,0.9,0.6s0.7-0.2,0.9-0.6C135.9-123.3,136-123.9,136-124.8z"/>
		<path class="st3" d="M142.4-130.6h1.4v9.3h-1.3v-1c-0.3,0.8-0.9,1.2-1.7,1.2c-0.8,0-1.4-0.3-1.7-1c-0.4-0.6-0.6-1.5-0.6-2.5
			c0-1.1,0.2-2,0.6-2.6s1-0.9,1.7-0.9s1.3,0.3,1.6,0.9V-130.6z M142.4-125.4c0-0.7-0.1-1.2-0.4-1.5s-0.5-0.4-0.8-0.4
			c-0.8,0-1.2,0.8-1.2,2.4c0,1.7,0.4,2.6,1.2,2.6c0.3,0,0.6-0.1,0.8-0.4c0.3-0.3,0.4-0.8,0.4-1.5V-125.4z"/>
		<path class="st3" d="M150.5-124.5h-3.9c0,0.9,0.1,1.5,0.4,1.9c0.3,0.3,0.6,0.5,0.9,0.5c0.6,0,1-0.4,1.2-1.3l1.3,0.2
			c-0.3,1.5-1.2,2.2-2.5,2.2c-0.8,0-1.5-0.3-2-0.9s-0.7-1.5-0.7-2.6c0-1.2,0.2-2.1,0.7-2.7s1.2-1,2-1c0.6,0,1.1,0.2,1.5,0.5
			s0.7,0.7,0.8,1.3C150.4-126.1,150.5-125.4,150.5-124.5z M149-125.5c0-1.2-0.4-1.8-1.2-1.8c-0.7,0-1.1,0.6-1.2,1.8H149z"/>
		<path class="st3" d="M151.7-128.2h1.2v1.5c0.4-1.1,1-1.7,1.7-1.7c0.1,0,0.2,0,0.3,0v1.5c-0.1,0-0.2,0-0.3,0c-1,0-1.5,0.7-1.5,2
			v3.5h-1.4L151.7-128.2L151.7-128.2z"/>
		<path class="st3" d="M155.5-128.2h1.3v1.1c0.3-0.8,0.9-1.2,1.7-1.2c0.5,0,0.8,0.1,1.1,0.3c0.3,0.2,0.5,0.5,0.5,0.8
			c0.1,0.3,0.1,0.8,0.1,1.5v4.4h-1.4v-4.3c0-0.6-0.1-1-0.2-1.2s-0.3-0.3-0.7-0.3c-0.4,0-0.6,0.1-0.8,0.4c-0.2,0.3-0.3,0.8-0.3,1.6
			v3.8h-1.4L155.5-128.2L155.5-128.2z"/>
		<path class="st3" d="M122.7-113.1h1.3v1.1c0.4-0.8,0.9-1.2,1.7-1.2c0.7,0,1.3,0.3,1.7,0.9c0.4,0.6,0.6,1.5,0.6,2.6
			c0,1-0.2,1.9-0.6,2.6s-1,1.1-1.8,1.1c-0.7,0-1.2-0.3-1.5-0.8v3h-1.4L122.7-113.1L122.7-113.1z M124.1-109.1c0,0.4,0,0.8,0.1,1
			s0.2,0.5,0.4,0.6c0.2,0.2,0.4,0.3,0.7,0.3c0.8,0,1.2-0.8,1.2-2.5c0-1.6-0.4-2.5-1.2-2.5c-0.3,0-0.6,0.2-0.9,0.5
			c-0.2,0.3-0.3,0.8-0.3,1.4L124.1-109.1L124.1-109.1z"/>
		<path class="st3" d="M129.4-113.1h1.2v1.5c0.4-1.1,1-1.7,1.7-1.7c0.1,0,0.2,0,0.3,0v1.5c-0.1,0-0.2,0-0.3,0c-1,0-1.5,0.7-1.5,2
			v3.5h-1.4L129.4-113.1L129.4-113.1z"/>
		<path class="st3" d="M138.4-109.7c0,2.4-0.9,3.7-2.7,3.7c-0.8,0-1.5-0.3-2-0.9s-0.7-1.5-0.7-2.7c0-2.4,0.9-3.6,2.7-3.6
			c0.8,0,1.5,0.3,2,0.9C138.2-111.8,138.4-110.9,138.4-109.7z M136.9-109.7c0-1-0.1-1.6-0.3-2c-0.2-0.4-0.5-0.5-0.9-0.5
			c-0.8,0-1.2,0.8-1.2,2.5c0,0.9,0.1,1.5,0.3,1.9c0.2,0.4,0.5,0.6,0.9,0.6s0.7-0.2,0.9-0.6C136.8-108.2,136.9-108.8,136.9-109.7z"/>
		<path class="st3" d="M141.4-113.1h1.2v1.1h-1.2v5.7H140v-5.7h-0.9v-1.1h0.9c0-0.8,0.1-1.4,0.2-1.7c0.1-0.3,0.3-0.6,0.6-0.7
			c0.3-0.2,0.7-0.3,1.2-0.3c0.3,0,0.6,0,0.8,0.1v1.1c-0.2,0-0.4,0-0.5,0c-0.3,0-0.5,0.1-0.6,0.2s-0.2,0.2-0.2,0.4
			C141.4-113.9,141.4-113.6,141.4-113.1z"/>
		<path class="st3" d="M148.4-109.5h-3.9c0,0.9,0.1,1.5,0.4,1.9c0.3,0.3,0.6,0.5,0.9,0.5c0.6,0,1-0.4,1.2-1.3l1.3,0.2
			c-0.3,1.5-1.2,2.2-2.5,2.2c-0.8,0-1.5-0.3-2-0.9s-0.7-1.5-0.7-2.6c0-1.2,0.2-2.1,0.7-2.7s1.2-1,2-1c0.6,0,1.1,0.2,1.5,0.5
			s0.7,0.7,0.8,1.3C148.3-111,148.3-110.3,148.4-109.5z M146.9-110.4c0-1.2-0.4-1.8-1.2-1.8c-0.7,0-1.1,0.6-1.2,1.8H146.9z"/>
		<path class="st3" d="M153.7-111.5l-1.1,0.3c-0.2-0.7-0.6-1-1.2-1c-0.3,0-0.5,0.1-0.6,0.2c-0.2,0.2-0.2,0.4-0.2,0.6
			c0,0.3,0.1,0.5,0.2,0.6c0.2,0.1,0.5,0.3,1.1,0.5c0.7,0.2,1.2,0.5,1.6,0.8c0.3,0.3,0.5,0.7,0.5,1.3c0,0.6-0.2,1.1-0.7,1.5
			s-1.1,0.6-1.8,0.6c-1.5,0-2.3-0.7-2.5-2l1.2-0.2c0.2,0.8,0.6,1.2,1.3,1.2c0.4,0,0.6-0.1,0.8-0.3c0.2-0.2,0.3-0.4,0.3-0.6
			s-0.1-0.3-0.2-0.5s-0.5-0.3-1-0.5s-0.9-0.3-1.2-0.5c-0.3-0.1-0.5-0.4-0.7-0.6c-0.2-0.3-0.3-0.6-0.3-1c0-0.6,0.2-1.1,0.6-1.5
			s1-0.6,1.7-0.6C152.6-113.3,153.3-112.7,153.7-111.5z"/>
		<path class="st3" d="M159.1-111.5l-1.1,0.3c-0.2-0.7-0.6-1-1.2-1c-0.3,0-0.5,0.1-0.6,0.2c-0.2,0.2-0.2,0.4-0.2,0.6
			c0,0.3,0.1,0.5,0.2,0.6c0.2,0.1,0.5,0.3,1.1,0.5c0.7,0.2,1.2,0.5,1.6,0.8c0.3,0.3,0.5,0.7,0.5,1.3c0,0.6-0.2,1.1-0.7,1.5
			s-1.1,0.6-1.8,0.6c-1.5,0-2.3-0.7-2.5-2l1.2-0.2c0.2,0.8,0.6,1.2,1.3,1.2c0.4,0,0.6-0.1,0.8-0.3c0.2-0.2,0.3-0.4,0.3-0.6
			s-0.1-0.3-0.2-0.5s-0.5-0.3-1-0.5s-0.9-0.3-1.2-0.5c-0.3-0.1-0.5-0.4-0.7-0.6c-0.2-0.3-0.3-0.6-0.3-1c0-0.6,0.2-1.1,0.6-1.5
			s1-0.6,1.7-0.6C158.1-113.3,158.8-112.7,159.1-111.5z"/>
		<path class="st3" d="M161.9-114h-1.5v-1.5h1.5V-114z M160.5-113.1h1.4v6.9h-1.4V-113.1z"/>
		<path class="st3" d="M168.6-109.7c0,2.4-0.9,3.7-2.7,3.7c-0.8,0-1.5-0.3-2-0.9s-0.7-1.5-0.7-2.7c0-2.4,0.9-3.6,2.7-3.6
			c0.8,0,1.5,0.3,2,0.9C168.4-111.8,168.6-110.9,168.6-109.7z M167.1-109.7c0-1-0.1-1.6-0.3-2c-0.2-0.4-0.5-0.5-0.9-0.5
			c-0.8,0-1.2,0.8-1.2,2.5c0,0.9,0.1,1.5,0.3,1.9c0.2,0.4,0.5,0.6,0.9,0.6s0.7-0.2,0.9-0.6C167-108.2,167.1-108.8,167.1-109.7z"/>
		<path class="st3" d="M170-113.1h1.3v1.1c0.3-0.8,0.9-1.2,1.7-1.2c0.5,0,0.8,0.1,1.1,0.3c0.3,0.2,0.5,0.5,0.5,0.8
			c0.1,0.3,0.1,0.8,0.1,1.5v4.4h-1.4v-4.3c0-0.6-0.1-1-0.2-1.2s-0.3-0.3-0.7-0.3c-0.4,0-0.6,0.1-0.8,0.4c-0.2,0.3-0.3,0.8-0.3,1.6
			v3.8H170V-113.1z"/>
		<path class="st3" d="M177.6-111.2l-1.4-0.2c0.1-0.6,0.4-1.1,0.8-1.4c0.5-0.3,1.1-0.5,1.7-0.5s1.1,0.1,1.5,0.4
			c0.4,0.2,0.6,0.5,0.7,0.9c0.1,0.3,0.1,0.9,0.1,1.5v2.3c0,0.9,0,1.6,0.1,1.9H180c-0.1-0.2-0.1-0.6-0.1-1.1
			c-0.4,0.9-1.1,1.3-1.9,1.3c-0.6,0-1-0.2-1.4-0.5c-0.3-0.4-0.5-0.8-0.5-1.5s0.3-1.3,0.8-1.8c0.5-0.4,1.4-0.7,2.7-0.7
			c0.1,0,0.2,0,0.3,0v-0.3c0-0.5-0.1-0.9-0.2-1.1s-0.4-0.4-0.8-0.4C178.1-112.2,177.8-111.9,177.6-111.2z M179.8-109.6
			c-0.2,0-0.3,0-0.4,0c-1.2,0-1.8,0.5-1.8,1.4c0,0.7,0.3,1.1,0.9,1.1c0.4,0,0.7-0.2,0.9-0.6c0.3-0.4,0.4-0.9,0.4-1.6V-109.6z"/>
		<path class="st3" d="M182.8-115.5h1.4v9.3h-1.4V-115.5z"/>
		<path class="st3" d="M126.9-96.4l-1.1,0.3c-0.2-0.7-0.6-1-1.2-1c-0.3,0-0.5,0.1-0.6,0.2c-0.2,0.2-0.2,0.4-0.2,0.6
			c0,0.3,0.1,0.5,0.2,0.6c0.2,0.1,0.5,0.3,1.1,0.5c0.7,0.2,1.2,0.5,1.6,0.8c0.3,0.3,0.5,0.7,0.5,1.3c0,0.6-0.2,1.1-0.7,1.5
			s-1.1,0.6-1.8,0.6c-1.5,0-2.3-0.7-2.5-2l1.2-0.2c0.2,0.8,0.6,1.2,1.3,1.2c0.4,0,0.6-0.1,0.8-0.3c0.2-0.2,0.3-0.4,0.3-0.6
			s-0.1-0.3-0.2-0.5s-0.5-0.3-1-0.5s-0.9-0.3-1.2-0.5c-0.3-0.1-0.5-0.4-0.7-0.6c-0.2-0.3-0.3-0.6-0.3-1c0-0.6,0.2-1.1,0.6-1.5
			s1-0.6,1.7-0.6C125.8-98.2,126.5-97.6,126.9-96.4z"/>
		<path class="st3" d="M129.6-98.9h-1.5v-1.5h1.5V-98.9z M128.2-98h1.4v6.9h-1.4V-98z"/>
		<path class="st3" d="M131.3-98h1.3v1c0.3-0.8,0.9-1.2,1.7-1.2c0.9,0,1.4,0.4,1.6,1.3c0.3-0.9,0.9-1.3,1.7-1.3c0.4,0,0.8,0.1,1,0.3
			c0.3,0.2,0.5,0.4,0.6,0.7c0.1,0.3,0.2,0.9,0.2,1.7v4.3H138v-4.2c0-0.6-0.1-1.1-0.2-1.3c-0.1-0.2-0.3-0.3-0.7-0.3
			c-0.7,0-1.1,0.6-1.1,1.9v4h-1.4v-4.2c0-0.6,0-1-0.1-1.2c0-0.2-0.1-0.3-0.3-0.4c-0.1-0.1-0.3-0.1-0.5-0.1c-0.4,0-0.7,0.1-0.8,0.4
			c-0.2,0.3-0.3,0.8-0.3,1.5v4h-1.4L131.3-98L131.3-98z"/>
		<path class="st3" d="M140.9-98h1.4v4.4c0,0.6,0,1,0.1,1.2s0.3,0.3,0.7,0.3c0.4,0,0.7-0.2,0.9-0.6c0.2-0.4,0.3-1,0.3-2V-98h1.4v6.9
			h-1.3v-1c-0.4,0.8-0.9,1.2-1.7,1.2c-0.4,0-0.7-0.1-1-0.3c-0.3-0.2-0.4-0.4-0.6-0.7c-0.1-0.3-0.2-0.9-0.2-1.7L140.9-98L140.9-98z"
			/>
		<path class="st3" d="M147.4-100.4h1.4v9.3h-1.4V-100.4z"/>
		<path class="st3" d="M151.8-96.1l-1.4-0.2c0.1-0.6,0.4-1.1,0.8-1.4c0.5-0.3,1.1-0.5,1.7-0.5s1.1,0.1,1.5,0.4
			c0.4,0.2,0.6,0.5,0.7,0.9c0.1,0.3,0.1,0.9,0.1,1.5v2.3c0,0.9,0,1.6,0.1,1.9H154c-0.1-0.2-0.1-0.6-0.1-1.1
			c-0.4,0.9-1.1,1.3-1.9,1.3c-0.6,0-1-0.2-1.4-0.5c-0.4-0.4-0.5-0.8-0.5-1.5s0.3-1.3,0.8-1.8c0.5-0.4,1.4-0.7,2.7-0.7
			c0.1,0,0.2,0,0.3,0v-0.3c0-0.5-0.1-0.9-0.2-1.1s-0.4-0.4-0.8-0.4C152.3-97.1,151.9-96.8,151.8-96.1z M153.9-94.5
			c-0.2,0-0.3,0-0.4,0c-1.2,0-1.8,0.5-1.8,1.4c0,0.7,0.3,1.1,0.9,1.1c0.4,0,0.7-0.2,0.9-0.6c0.3-0.4,0.4-0.9,0.4-1.6V-94.5z"/>
		<path class="st3" d="M157.1-99.8l1.3-0.1v1.9h1.3v1.1h-1.3v3c0,0.5,0,0.9,0,1.1s0.1,0.3,0.2,0.4s0.4,0.2,0.7,0.2
			c0.2,0,0.4,0,0.6,0v1.1c-0.4,0.1-0.7,0.1-1.1,0.1c-0.5,0-0.9-0.1-1.2-0.3c-0.3-0.2-0.5-0.5-0.5-0.8c-0.1-0.4-0.1-0.9-0.1-1.6v-3.1
			h-0.9V-98h0.9L157.1-99.8z"/>
		<path class="st3" d="M165.8-94.7c0,2.4-0.9,3.7-2.7,3.7c-0.8,0-1.5-0.3-2-0.9s-0.7-1.5-0.7-2.7c0-2.4,0.9-3.6,2.7-3.6
			c0.8,0,1.5,0.3,2,0.9C165.6-96.7,165.8-95.8,165.8-94.7z M164.3-94.6c0-1-0.1-1.6-0.3-2c-0.2-0.4-0.5-0.5-0.9-0.5
			c-0.8,0-1.2,0.8-1.2,2.5c0,0.9,0.1,1.5,0.3,1.9c0.2,0.4,0.5,0.6,0.9,0.6s0.7-0.2,0.9-0.6C164.2-93.1,164.3-93.7,164.3-94.6z"/>
		<path class="st3" d="M167.2-98h1.2v1.5c0.4-1.1,1-1.7,1.7-1.7c0.1,0,0.2,0,0.3,0v1.5c-0.1,0-0.2,0-0.3,0c-1,0-1.5,0.7-1.5,2v3.5
			h-1.4L167.2-98L167.2-98z"/>
		<path class="st3" d="M175.5-96.4l-1.1,0.3c-0.2-0.7-0.6-1-1.2-1c-0.3,0-0.5,0.1-0.6,0.2c-0.2,0.2-0.2,0.4-0.2,0.6
			c0,0.3,0.1,0.5,0.2,0.6c0.2,0.1,0.5,0.3,1.1,0.5c0.7,0.2,1.2,0.5,1.6,0.8c0.3,0.3,0.5,0.7,0.5,1.3c0,0.6-0.2,1.1-0.7,1.5
			S174-91,173.3-91c-1.5,0-2.3-0.7-2.5-2l1.2-0.2c0.2,0.8,0.6,1.2,1.3,1.2c0.4,0,0.6-0.1,0.8-0.3c0.2-0.2,0.3-0.4,0.3-0.6
			s-0.1-0.3-0.2-0.5s-0.5-0.3-1-0.5s-0.9-0.3-1.2-0.5c-0.3-0.1-0.5-0.4-0.7-0.6c-0.2-0.3-0.3-0.6-0.3-1c0-0.6,0.2-1.1,0.6-1.5
			s1-0.6,1.7-0.6C174.4-98.2,175.1-97.6,175.5-96.4z"/>
	</g>
</g>
<g>
	<polygon class="st0" points="-310,39 -283.6,0 -256.8,39 -283.6,11.3 	"/>
	<polygon class="st0" points="-303.4,39 -283.6,17.9 -264,39 	"/>
	<g>
		<path d="M-249,0h9.5l7.7,27.9l7.9-27.9h9.1v38.7h-6v-33l-9.2,33h-4.7l-9-33v33h-5.3V0z"/>
		<path d="M-207.3,0h9.6c3.1,0,5.5,0.3,7.5,0.9c1.9,0.6,3.5,1.9,4.8,3.8c1.3,2,2,4.3,2,7.1c0,2.5-0.5,4.7-1.6,6.6
			c-1.1,1.8-2.5,3.2-4.3,4s-4.5,1.2-8.2,1.2h-3.3v15.1h-6.4L-207.3,0L-207.3,0z M-200.9,5v13.5h3.2c2.8,0,4.8-0.5,5.9-1.6
			s1.6-2.8,1.6-5.2c0-1.8-0.4-3.2-1.1-4.3s-1.5-1.8-2.4-2c-0.9-0.3-2.2-0.4-4.1-0.4C-197.8,5-200.9,5-200.9,5z"/>
		<path d="M-155.6,8.6l-5.5,1.9c-0.6-2-1.5-3.6-2.5-4.5c-1-1-2.5-1.5-4.3-1.5c-1.7,0-3,0.5-3.9,1.5s-1.4,2.1-1.4,3.4
			c0,1.4,0.5,2.6,1.5,3.4c1,0.8,3.1,1.9,6.2,3c2.6,1,4.6,2,6.1,2.9c1.4,0.9,2.6,2.1,3.4,3.6c0.9,1.5,1.3,3.3,1.3,5.3
			c0,3.2-1.1,6-3.4,8.3c-2.3,2.3-5.5,3.4-9.6,3.4c-7.1,0-11.6-3.6-13.3-10.8l5.7-1.6c1,4.8,3.6,7.1,7.8,7.1c2.1,0,3.6-0.5,4.7-1.6
			c1.1-1.1,1.6-2.4,1.6-4c0-1.2-0.4-2.2-1.1-3.2c-0.7-1-2.6-2-5.5-3.1c-3.1-1.2-5.3-2.2-6.7-3s-2.5-2-3.5-3.6s-1.4-3.4-1.4-5.4
			c0-3.1,1.1-5.7,3.2-7.8c2.1-2.1,5-3.1,8.5-3.1C-161.4-0.7-157.4,2.4-155.6,8.6z"/>
	</g>
</g>
<g>
	<polygon class="st4" points="0,39 26.4,0 53.2,39 26.4,11.3 	"/>
	<polygon class="st4" points="6.6,39 26.4,17.9 46,39 	"/>
	<g>
		<path class="st3" d="M61,0h9.5l7.7,27.9L86.1,0h9.1v38.7h-6v-33l-9.2,33h-4.7l-9-33v33H61V0z"/>
		<path class="st3" d="M102.7,0h9.6c3.1,0,5.5,0.3,7.5,0.9c1.9,0.6,3.5,1.9,4.8,3.8c1.3,2,2,4.3,2,7.1c0,2.5-0.5,4.7-1.6,6.6
			c-1.1,1.8-2.5,3.2-4.3,4s-4.5,1.2-8.2,1.2h-3.3v15.1h-6.4V0H102.7z M109.1,5v13.5h3.2c2.8,0,4.8-0.5,5.9-1.6s1.6-2.8,1.6-5.2
			c0-1.8-0.4-3.2-1.1-4.3s-1.5-1.8-2.4-2c-0.9-0.3-2.2-0.4-4.1-0.4C112.2,5,109.1,5,109.1,5z"/>
		<path class="st3" d="M154.4,8.6l-5.5,1.9c-0.6-2-1.5-3.6-2.5-4.5c-1-1-2.5-1.5-4.3-1.5c-1.7,0-3,0.5-3.9,1.5s-1.4,2.1-1.4,3.4
			c0,1.4,0.5,2.6,1.5,3.4c1,0.8,3.1,1.9,6.2,3c2.6,1,4.6,2,6.1,2.9c1.4,0.9,2.6,2.1,3.4,3.6c0.9,1.5,1.3,3.3,1.3,5.3
			c0,3.2-1.1,6-3.4,8.3s-5.5,3.4-9.6,3.4c-7.1,0-11.6-3.6-13.3-10.8l5.7-1.6c1,4.8,3.6,7.1,7.8,7.1c2.1,0,3.6-0.5,4.7-1.6
			c1.1-1.1,1.6-2.4,1.6-4c0-1.2-0.4-2.2-1.1-3.2s-2.6-2-5.5-3.1c-3.1-1.2-5.3-2.2-6.7-3c-1.4-0.8-2.5-2-3.5-3.6s-1.4-3.4-1.4-5.4
			c0-3.1,1.1-5.7,3.2-7.8s5-3.1,8.5-3.1C148.6-0.7,152.6,2.4,154.4,8.6z"/>
	</g>
</g>
<g>
	<polygon class="st0" points="-241,169 -214.6,130 -187.8,169 -214.6,141.3 	"/>
	<polygon class="st0" points="-234.4,169 -214.6,147.9 -195,169 	"/>
</g>
<g>
	<polygon class="st3" points="49,169 75.4,130 102.2,169 75.4,141.3 	"/>
	<polygon class="st3" points="55.6,169 75.4,147.9 95,169 	"/>
</g>
<rect x="-323.8" y="-189.8" class="st5" width="265" height="28"/>
<text transform="matrix(1 0 0 1 -323.7637 -181.3028)" style="font-family:'ArialMT'; font-size:12px;">синий цвет - Pantone Solid Coated 281C</text>
</svg>
